<svg version="1.1" id="Layer_1" xmlns="http://www.w3.org/2000/svg" xmlns:xlink="http://www.w3.org/1999/xlink" x="0px" y="0px" width="100%" viewBox="0 0 4167 4167" enable-background="new 0 0 4167 4167" xml:space="preserve">

<path fill="#010203" opacity="1.000000" stroke="none" d="
M1066.729248,1702.327026 
	C1066.589966,1692.576660 1070.991333,1684.426147 1078.121826,1676.136230 
	C1145.008057,1705.353760 1209.610718,1734.899780 1274.243530,1764.379395 
	C1309.881348,1780.634155 1345.671509,1796.560425 1381.158936,1813.135742 
	C1389.295288,1816.935791 1395.908081,1816.738892 1403.543091,1812.218872 
	C1419.538208,1802.749390 1436.013184,1794.094482 1452.139038,1784.840088 
	C1463.030029,1778.589966 1473.661377,1771.887329 1485.806274,1765.010010 
	C1542.941284,1733.655151 1598.678833,1702.677490 1654.385132,1671.717163 
	C1787.696777,1746.821167 1919.923828,1821.313354 2052.137451,1895.829346 
	C2052.686035,1896.138672 2053.169922,1896.726929 2053.447998,1897.299438 
	C2053.657715,1897.731934 2053.489502,1898.348022 2053.489502,1900.335327 
	C2048.614990,1903.445557 2043.078613,1906.995117 2037.525635,1910.518555 
	C2015.693604,1924.371094 1993.856323,1938.215454 1970.661621,1952.360107 
	C1948.403564,1964.068604 1929.118164,1978.309326 1907.313354,1989.203857 
	C1885.949951,1977.234985 1865.108276,1965.585083 1844.292603,1953.888916 
	C1822.848755,1941.839844 1801.431396,1929.743286 1779.999878,1917.672241 
	C1759.147705,1905.927490 1738.343506,1894.096313 1717.423828,1882.472900 
	C1696.056519,1870.600586 1675.313110,1857.532837 1653.295410,1847.024048 
	C1628.019775,1861.483643 1603.720459,1875.136841 1579.694946,1889.255859 
	C1570.623779,1894.586670 1562.185425,1900.994629 1551.954102,1907.484131 
	C1549.635742,1912.521240 1548.252686,1916.966187 1548.098389,1921.453369 
	C1546.930664,1955.398071 1545.984741,1989.350586 1545.023193,2023.302246 
	C1544.875122,2028.530396 1545.002441,2033.766479 1545.002441,2038.750977 
	C1548.847168,2041.328613 1551.467529,2043.345337 1554.316895,2044.957031 
	C1605.334351,2073.811523 1656.366333,2102.640625 1707.421631,2131.428223 
	C1810.692139,2189.657471 1913.975220,2247.864502 2017.260620,2306.067139 
	C2042.211304,2320.127441 2067.341309,2333.879150 2092.069580,2348.319092 
	C2099.920898,2352.904053 2106.556152,2352.939209 2114.471680,2348.816650 
	C2129.823975,2340.820068 2145.531006,2333.498291 2161.176270,2326.076660 
	C2165.198486,2324.168701 2169.538330,2322.929443 2173.971436,2321.294922 
	C2176.429199,2338.537109 2176.572510,2476.590576 2174.310303,2493.818359 
	C2165.424316,2499.450439 2156.475342,2505.122314 2146.110840,2511.114258 
	C2134.144531,2517.086182 2123.346680,2522.331787 2113.126465,2528.529785 
	C2105.900879,2532.911865 2099.539307,2532.989502 2092.801514,2528.215576 
	C2091.182617,2527.068604 2089.317139,2526.272949 2087.583252,2525.284180 
	C2038.459473,2497.268066 1989.338867,2469.246582 1940.215942,2441.229004 
	C1848.327759,2388.819336 1756.443848,2336.402100 1664.548218,2284.005371 
	C1577.853638,2234.574463 1491.134399,2185.186523 1404.478760,2135.687012 
	C1399.996338,2133.126465 1396.010620,2129.696533 1392.786865,2127.384033 
	C1391.698730,2113.193848 1390.738159,2100.664551 1390.074707,2086.467285 
	C1390.750854,2075.488770 1391.441040,2066.178955 1391.458252,2056.867920 
	C1391.576050,1992.942749 1391.573608,1929.017456 1391.536865,1865.092163 
	C1391.533813,1859.864746 1390.987305,1854.637451 1390.654663,1848.725464 
	C1383.763428,1845.410278 1377.264160,1842.137939 1370.647705,1839.123047 
	C1290.716797,1802.700562 1210.809082,1766.226685 1130.797607,1729.981934 
	C1109.612793,1720.385376 1088.094482,1711.525269 1066.729248,1702.327026 
z" data-index="1"></path>
<path fill="#010203" opacity="1.000000" stroke="none" d="
M3092.629150,1635.423584 
	C3100.424805,1640.745850 3105.230957,1648.491211 3108.614746,1658.216187 
	C3085.127686,1672.961060 3062.686035,1685.904785 3040.361572,1699.047119 
	C3022.674561,1709.459351 3005.131592,1720.115601 2986.160645,1731.091797 
	C2947.030029,1753.402344 2909.249512,1775.261230 2871.524658,1797.214844 
	C2868.724854,1798.844238 2866.321533,1801.155518 2862.333496,1803.410767 
	C2841.493408,1814.902832 2821.540771,1825.296387 2802.801514,1838.281860 
	C2802.364502,1846.699219 2801.537842,1854.604980 2801.625000,1862.500610 
	C2801.851318,1883.007935 2802.479248,1903.510864 2802.319336,1925.779907 
	C2801.585205,1971.076538 2801.445312,2014.609009 2801.439941,2058.141357 
	C2801.439697,2061.371338 2802.405029,2064.601318 2802.297607,2069.616211 
	C2801.371582,2089.869141 2801.069580,2108.337158 2800.766846,2126.834961 
	C2794.271240,2130.782227 2788.598389,2134.139404 2783.015625,2137.640625 
	C2771.301270,2144.986816 2759.634277,2152.408936 2746.556885,2160.020020 
	C2719.468018,2175.207520 2693.715820,2190.083008 2668.100586,2205.190186 
	C2658.470947,2210.869385 2649.158936,2217.087158 2638.323242,2223.426514 
	C2602.209473,2243.899902 2567.382080,2263.849609 2532.778076,2284.179932 
	C2515.768311,2294.173584 2499.172852,2304.872314 2481.049316,2315.509766 
	C2456.858887,2329.051514 2434.054443,2342.414307 2411.114746,2355.541260 
	C2407.385010,2357.675293 2403.678223,2361.685791 2397.482422,2357.630371 
	C2397.265625,2351.876953 2396.859619,2345.388672 2396.805908,2338.897461 
	C2396.609375,2315.093994 2396.637939,2291.288330 2396.369385,2267.486084 
	C2396.175537,2250.315186 2395.644531,2233.148193 2395.561279,2214.285645 
	C2395.858643,2204.753174 2395.858643,2196.914551 2395.858643,2189.555664 
	C2400.353027,2186.528564 2403.494629,2184.147949 2406.875244,2182.177002 
	C2438.177734,2163.927734 2469.553223,2145.803955 2500.823975,2127.500977 
	C2506.452637,2124.206543 2511.699463,2120.259521 2518.473145,2116.340088 
	C2551.932617,2097.510498 2584.083740,2079.027100 2616.122070,2060.349854 
	C2624.646240,2055.380615 2632.824219,2049.817139 2642.647217,2044.182007 
	C2650.992920,2041.044556 2651.387939,2035.260620 2651.374023,2028.978027 
	C2651.295898,1993.685547 2651.071045,1958.388428 2651.582764,1923.102783 
	C2651.719727,1913.652832 2647.791504,1908.648193 2640.045898,1904.272583 
	C2609.911377,1887.249512 2580.072998,1869.703125 2550.066162,1852.452393 
	C2546.715576,1850.526001 2542.994629,1849.242798 2539.537109,1847.702026 
	C2518.661133,1859.699951 2498.402100,1871.108276 2478.381836,1882.921021 
	C2461.231201,1893.040161 2444.353516,1903.622070 2425.978516,1914.455933 
	C2388.280273,1935.836792 2351.941650,1956.731812 2315.669434,1977.742554 
	C2312.857178,1979.371582 2310.514160,1981.811401 2306.563721,1984.089600 
	C2269.753662,2004.896240 2234.272217,2025.385254 2198.938721,2046.125610 
	C2183.023193,2055.467773 2167.402344,2065.311279 2150.249756,2075.247070 
	C2118.338135,2093.222900 2087.808838,2110.852295 2057.316895,2128.546143 
	C2040.083130,2138.546631 2022.880859,2148.602783 2005.728760,2158.742676 
	C2000.632080,2161.755859 1994.927246,2164.392090 1993.663086,2173.022949 
	C1992.987183,2193.202881 1992.877563,2211.810791 1992.692993,2230.418213 
	C1992.673584,2232.382568 1992.255981,2234.349609 1991.933960,2236.300781 
	C1991.832153,2236.917969 1991.581787,2237.652832 1991.140259,2238.031982 
	C1990.679321,2238.427734 1989.906250,2238.459961 1989.269531,2238.651123 
	C1973.910278,2232.505615 1852.305176,2163.468994 1837.666260,2152.322266 
	C1836.754639,2130.224365 1836.750854,2107.025391 1837.778198,2083.866699 
	C1837.954590,2079.891357 1842.176758,2076.095459 1845.903320,2071.978027 
	C1857.134644,2065.439941 1867.493164,2060.045410 1877.747559,2054.432373 
	C1896.869751,2043.965576 1915.682739,2032.925415 1934.496216,2021.905273 
	C1956.710938,2008.893188 1978.789917,1995.649414 2002.295532,1982.000366 
	C2014.076782,1975.641602 2024.807739,1970.281372 2034.831665,1963.823608 
	C2051.116211,1953.332275 2067.825439,1943.744141 2085.013672,1934.769409 
	C2102.569092,1925.603271 2119.121582,1914.515625 2137.507812,1903.995117 
	C2145.198730,1899.538574 2150.470703,1894.229004 2158.328857,1891.908325 
	C2165.453613,1889.803955 2171.667725,1884.589111 2178.255615,1880.698853 
	C2194.009033,1871.396484 2209.746338,1862.066650 2226.833496,1852.475586 
	C2245.900146,1842.116211 2263.705322,1832.169678 2281.322754,1821.900757 
	C2297.198242,1812.647461 2312.868164,1803.041138 2330.006836,1793.174072 
	C2364.875244,1773.607178 2398.406982,1754.528076 2431.830566,1735.261108 
	C2441.581055,1729.640503 2451.023193,1723.485352 2461.987305,1717.163330 
	C2489.206299,1703.374634 2513.321533,1686.781494 2540.000000,1674.238159 
	C2581.811279,1697.908203 2622.815430,1721.203369 2663.899658,1744.356934 
	C2704.920898,1767.475098 2745.545410,1791.316772 2787.333496,1813.993164 
	C2802.513428,1805.212646 2817.049805,1797.247681 2831.098877,1788.499634 
	C2838.669189,1783.785645 2845.404541,1777.730835 2853.974121,1772.272461 
	C2859.646484,1770.525757 2864.119385,1769.235718 2868.035400,1766.979126 
	C2897.952881,1749.739502 2927.799561,1732.376831 2957.580566,1714.902832 
	C2966.713379,1709.544312 2975.572510,1703.719116 2985.932373,1697.608643 
	C3022.415283,1676.547729 3057.522217,1655.985596 3092.629150,1635.423584 
z" data-index="2" style="opacity: 1;"></path>
<path fill="#010203" opacity="1.000000" stroke="none" d="
M2120.196289,3431.357178 
	C2112.005859,3431.780762 2103.815186,3432.204346 2093.895020,3430.373047 
	C2091.915527,3396.070068 2091.666016,3364.021973 2091.656982,3330.134766 
	C2091.958984,3315.999268 2092.290039,3303.696289 2091.970947,3291.410156 
	C2091.805176,3285.028320 2090.490967,3278.676270 2089.827637,3270.583252 
	C2089.930176,3266.209961 2089.628662,3263.534668 2089.912598,3260.922852 
	C2093.856201,3224.638916 2091.909424,3188.291016 2091.476318,3150.102051 
	C2091.563232,3116.148438 2091.370605,3084.048584 2091.461914,3050.096191 
	C2091.746094,3019.658447 2091.746094,2991.073486 2091.746094,2962.802490 
	C2086.394775,2959.131836 2082.202637,2955.834717 2077.631104,2953.193359 
	C2056.881104,2941.203613 2036.005859,2929.430664 2015.209595,2917.520752 
	C1959.175781,2885.431152 1903.253418,2853.144531 1847.023560,2821.402588 
	C1839.541382,2817.178955 1836.483398,2811.911377 1836.525146,2802.151123 
	C1836.599121,2772.204590 1836.462524,2744.124512 1836.552002,2714.177734 
	C1836.617310,2681.550537 1836.456299,2650.790283 1836.542603,2618.165771 
	C1836.628540,2585.542480 1836.467407,2554.783936 1836.576660,2522.164062 
	C1836.926270,2495.683350 1836.894653,2471.062012 1837.210205,2446.445312 
	C1837.255005,2442.951172 1838.986938,2439.479004 1840.180054,2435.110596 
	C1844.572388,2437.079102 1847.676514,2438.193359 1850.514282,2439.783447 
	C1894.031982,2464.166016 1937.541626,2488.563477 1980.960938,2513.120117 
	C1984.869019,2515.330566 1988.143188,2518.662109 1992.334717,2521.963379 
	C1992.334717,2541.456787 1992.334717,2560.723145 1992.027466,2581.844238 
	C1991.684204,2628.966553 1991.645386,2674.234375 1991.638794,2719.502197 
	C1991.638794,2720.132568 1991.992310,2720.785645 1992.270142,2721.386719 
	C1992.541748,2721.974365 1992.927856,2722.509033 1994.225464,2724.663818 
	C2028.833252,2746.389404 2064.988525,2768.741699 2102.836914,2790.293213 
	C2141.424072,2770.416748 2178.202637,2747.937744 2215.554688,2726.691162 
	C2217.249268,2713.156738 2216.926025,2700.587891 2216.147705,2686.144531 
	C2216.377197,2661.239014 2216.458496,2638.192627 2216.273682,2615.148193 
	C2216.115479,2595.415283 2215.652832,2575.684326 2215.613037,2554.100098 
	C2215.685303,2468.762451 2215.487793,2385.277100 2215.202637,2301.791992 
	C2215.187012,2297.191406 2214.444824,2292.593750 2214.452393,2286.161377 
	C2214.617676,2244.664795 2216.393311,2204.942139 2212.549805,2165.971436 
	C2193.002930,2150.758301 2171.025635,2141.253174 2151.996338,2125.438721 
	C2162.334717,2118.203125 2171.465332,2111.812744 2181.949219,2104.994141 
	C2221.444824,2081.462891 2259.587402,2058.359375 2297.299316,2035.516602 
	C2313.717773,2042.948608 2356.612305,2071.627197 2368.026855,2082.864258 
	C2368.026855,2105.438477 2367.915527,2128.748779 2368.060547,2152.057373 
	C2368.185059,2172.031006 2368.602783,2192.003174 2368.537109,2213.821777 
	C2368.143311,2275.151367 2368.090088,2334.635010 2368.097900,2394.118896 
	C2368.098389,2397.403809 2368.609619,2400.688477 2368.535156,2405.820312 
	C2368.161621,2500.457031 2368.128418,2593.246582 2368.144531,2686.036377 
	C2368.145264,2689.332520 2368.638672,2692.628418 2368.541016,2697.775391 
	C2368.055664,2738.677002 2367.931885,2777.728027 2367.807617,2816.839355 
	C2355.091064,2824.564453 2343.290283,2831.733398 2330.134766,2839.327637 
	C2292.510010,2860.227539 2256.199219,2880.630615 2219.997070,2901.224854 
	C2210.300537,2906.740479 2200.935547,2912.838867 2190.061035,2919.125000 
	C2166.187012,2932.221191 2143.670654,2944.862061 2121.474609,2957.322998 
	C2120.937256,2961.069580 2120.222900,2963.666016 2120.247070,2966.255615 
	C2120.476807,2990.796631 2120.832031,3015.336914 2120.786621,3041.732178 
	C2120.403320,3075.860352 2120.295410,3108.134033 2120.413330,3140.406738 
	C2120.456543,3152.241211 2121.033936,3164.073486 2121.001465,3177.759521 
	C2120.612793,3211.833496 2120.514160,3244.055176 2120.622070,3276.275879 
	C2120.648438,3284.136719 2121.352783,3291.995117 2121.288574,3301.697510 
	C2120.719727,3311.526611 2120.537598,3319.512695 2120.508057,3327.499268 
	C2120.380127,3362.118652 2120.296387,3396.737793 2120.196289,3431.357178 
z" data-index="3"></path>
<path fill="#0549C8" opacity="1.000000" stroke="none" d="
M2368.902344,2695.924561 
	C2368.638672,2692.628418 2368.145264,2689.332520 2368.144531,2686.036377 
	C2368.128418,2593.246582 2368.161621,2500.457031 2369.976807,2405.851807 
	C2376.730225,2405.789062 2382.032715,2406.920898 2386.593018,2409.411865 
	C2399.973389,2416.720215 2413.051758,2424.580811 2426.260742,2432.203369 
	C2447.509521,2444.464844 2468.747803,2456.744141 2490.030518,2468.946045 
	C2502.692627,2476.205566 2515.486328,2483.235596 2528.122314,2490.539062 
	C2550.505615,2503.476562 2572.812012,2516.546875 2595.154297,2529.555420 
	C2608.332031,2537.228027 2621.520020,2544.884033 2634.697998,2552.556396 
	C2654.180908,2563.899414 2673.572266,2575.402832 2693.161865,2586.558838 
	C2716.218262,2599.689697 2739.581299,2612.285645 2762.564209,2625.541748 
	C2792.423828,2642.764160 2822.025879,2660.432861 2851.764893,2677.865234 
	C2875.214844,2691.611084 2898.641113,2705.398682 2922.194336,2718.965820 
	C2942.884033,2730.883301 2963.784668,2742.434326 2984.498779,2754.310059 
	C2997.722412,2761.891846 3010.741455,2769.829346 3023.914551,2777.500488 
	C3042.825928,2788.513428 3061.517578,2799.949951 3080.832031,2810.209229 
	C3094.372314,2817.401123 3107.245117,2825.105225 3117.531006,2836.625732 
	C3115.872070,2840.884033 3114.212891,2845.142090 3110.970215,2851.028809 
	C3108.314209,2853.588623 3107.878418,2854.757568 3108.078613,2856.163574 
	C3095.746826,2877.061523 3078.400146,2893.239014 3059.131348,2907.460693 
	C3050.630127,2913.735107 3041.730469,2919.557861 3032.597412,2924.873779 
	C2987.998291,2950.833008 2943.259277,2976.551758 2897.237305,3001.212158 
	C2895.989502,2993.986572 2892.587402,2990.565918 2887.511475,2987.721680 
	C2873.066895,2979.627441 2858.840088,2971.145264 2844.520752,2962.826904 
	C2825.615967,2951.844727 2806.788574,2940.725830 2787.775635,2929.933838 
	C2764.720215,2916.847412 2741.355469,2904.302002 2718.393555,2891.056396 
	C2678.803955,2868.218506 2639.419922,2845.023438 2599.952881,2821.973389 
	C2576.501709,2808.277100 2553.081299,2794.528076 2529.601074,2780.882324 
	C2511.843994,2770.562744 2493.986328,2760.416748 2476.223145,2750.107910 
	C2453.309326,2736.810059 2430.629883,2723.093994 2407.483398,2710.216309 
	C2395.466064,2703.530273 2383.950928,2694.736084 2368.902344,2695.924561 
z" data-index="4"></path>
<path fill="#3B8CDC" opacity="1.000000" stroke="none" d="
M2984.556641,1698.107422 
	C2975.572510,1703.719116 2966.713379,1709.544312 2957.580566,1714.902832 
	C2927.799561,1732.376831 2897.952881,1749.739502 2868.035400,1766.979126 
	C2864.119385,1769.235718 2859.646484,1770.525757 2852.663086,1771.695557 
	C2823.176270,1756.327148 2796.285889,1741.827271 2769.785889,1726.645874 
	C2740.433105,1709.830566 2711.551270,1692.195801 2682.255127,1675.279785 
	C2651.793213,1657.690430 2621.012939,1640.653564 2590.497559,1623.155518 
	C2556.537598,1603.682129 2522.703857,1583.988159 2488.848389,1564.333008 
	C2476.803955,1557.340454 2464.908691,1550.089966 2452.854980,1543.113647 
	C2423.563965,1526.160645 2394.220703,1509.297485 2364.896484,1492.401733 
	C2344.198975,1480.476318 2323.485352,1468.579102 2302.802490,1456.628418 
	C2280.973877,1444.015869 2259.157471,1431.381836 2237.365967,1418.705444 
	C2223.604980,1410.700439 2209.950684,1402.511108 2196.155762,1394.564941 
	C2175.453613,1382.640015 2154.679688,1370.840088 2133.918457,1359.017578 
	C2121.227051,1351.790405 2108.449707,1344.711792 2095.804688,1337.404419 
	C2073.404541,1324.459839 2051.058594,1311.420776 2028.723022,1298.364746 
	C2014.980225,1290.331665 2001.335815,1282.130127 1987.580444,1274.119141 
	C1969.229980,1263.431763 1950.855103,1252.784912 1932.416382,1242.250977 
	C1911.669678,1230.398560 1890.559082,1219.149536 1870.201172,1206.668579 
	C1863.188477,1202.369141 1853.986206,1199.532715 1851.332031,1189.920410 
	C1871.175293,1178.105713 1890.918823,1166.119263 1910.887329,1154.520142 
	C1935.451294,1140.251831 1960.202759,1126.306396 1987.380005,1112.758057 
	C1996.234985,1121.313965 2004.964478,1126.053223 2013.674561,1130.946899 
	C2029.287720,1139.718994 2044.705322,1148.838379 2060.230713,1157.767090 
	C2088.997070,1174.311035 2117.797607,1190.794922 2146.554199,1207.355713 
	C2167.826416,1219.606079 2189.069824,1231.906982 2210.291748,1244.244141 
	C2229.794189,1255.581665 2249.155518,1267.165771 2268.753174,1278.336060 
	C2291.821289,1291.484497 2315.219727,1304.056152 2338.215088,1317.328369 
	C2367.514893,1334.239136 2396.440186,1351.798340 2425.736572,1368.714966 
	C2456.198975,1386.304565 2487.026123,1403.262085 2517.481201,1420.864502 
	C2546.770996,1437.793579 2575.666992,1455.403931 2604.959473,1472.328735 
	C2635.416992,1489.926758 2666.214844,1506.934448 2696.729980,1524.433594 
	C2730.690186,1543.908569 2764.493896,1563.655762 2798.377197,1583.265137 
	C2809.863281,1589.912476 2821.430420,1596.421021 2832.877930,1603.133789 
	C2852.333008,1614.542358 2871.635986,1626.212280 2891.160156,1637.500122 
	C2919.887695,1654.109497 2948.719727,1670.538940 2977.594482,1686.890991 
	C2982.170166,1689.482300 2984.266846,1693.107910 2984.556641,1698.107422 
z" data-index="5"></path>
<path fill="#0B41BC" opacity="1.000000" stroke="none" d="
M1992.334717,2579.989258 
	C1992.334717,2560.723145 1992.334717,2541.456787 1992.334717,2521.963379 
	C1988.143188,2518.662109 1984.869019,2515.330566 1980.960938,2513.120117 
	C1937.541626,2488.563477 1894.031982,2464.166016 1850.514282,2439.783447 
	C1847.676514,2438.193359 1844.572388,2437.079102 1840.180054,2435.110596 
	C1838.986938,2439.479004 1837.255005,2442.951172 1837.210205,2446.445312 
	C1836.894653,2471.062012 1836.926270,2495.683350 1835.110352,2522.022461 
	C1814.568359,2513.907471 1795.532959,2504.484619 1777.014771,2494.135986 
	C1753.276245,2480.870117 1729.974487,2466.823486 1706.443359,2453.184082 
	C1694.959961,2446.528076 1683.324585,2440.133545 1671.859985,2433.446289 
	C1642.638428,2416.401611 1613.484741,2399.240479 1584.282837,2382.162109 
	C1561.379395,2368.767090 1538.494873,2355.338379 1515.508179,2342.087402 
	C1494.809692,2330.155518 1473.942383,2318.516602 1453.228394,2306.611328 
	C1439.427490,2298.679688 1425.821045,2290.409912 1412.027222,2282.465576 
	C1391.325317,2270.542725 1370.541748,2258.761475 1349.780640,2246.941406 
	C1337.089844,2239.716309 1324.327515,2232.614990 1311.683105,2225.309570 
	C1289.282959,2212.367676 1266.944824,2199.318359 1244.587036,2186.303467 
	C1231.401245,2178.627441 1218.233643,2170.920166 1205.046997,2163.245850 
	C1185.549194,2151.898682 1166.047119,2140.559082 1146.536865,2129.233154 
	C1124.735840,2116.577393 1103.046875,2103.721436 1081.051880,2091.411621 
	C1073.038574,2086.927002 1064.286011,2083.762939 1055.870728,2079.996338 
	C1055.529541,2076.067627 1054.892456,2072.138916 1054.891724,2068.210205 
	C1054.880859,2016.034058 1054.959473,1963.858032 1056.945435,1909.864014 
	C1062.672852,1909.113403 1066.847046,1909.500122 1070.206421,1911.359253 
	C1090.552124,1922.619751 1110.769531,1934.116089 1130.918335,1945.726929 
	C1154.512939,1959.323364 1178.015625,1973.079956 1201.515137,1986.840454 
	C1214.693115,1994.556763 1227.727905,2002.518188 1240.927490,2010.196533 
	C1259.880737,2021.221802 1278.929565,2032.082520 1297.930054,2043.026611 
	C1319.228149,2055.294189 1340.815674,2067.097656 1361.671631,2080.076172 
	C1370.602905,2085.634277 1379.437500,2088.810791 1389.777466,2088.135498 
	C1390.738159,2100.664551 1391.698730,2113.193848 1392.786865,2127.384033 
	C1396.010620,2129.696533 1399.996338,2133.126465 1404.478760,2135.687012 
	C1491.134399,2185.186523 1577.853638,2234.574463 1664.548218,2284.005371 
	C1756.443848,2336.402100 1848.327759,2388.819336 1940.215942,2441.229004 
	C1989.338867,2469.246582 2038.459473,2497.268066 2087.583252,2525.284180 
	C2089.317139,2526.272949 2091.182617,2527.068604 2092.801514,2528.215576 
	C2099.539307,2532.989502 2105.900879,2532.911865 2113.126465,2528.529785 
	C2123.346680,2522.331787 2134.144531,2517.086182 2146.341797,2512.605957 
	C2148.885498,2519.381104 2152.410156,2523.323242 2156.901611,2526.091309 
	C2171.293213,2534.960205 2185.723145,2543.795654 2200.493652,2552.004883 
	C2204.829346,2554.414551 2210.348389,2554.695801 2215.324707,2555.952637 
	C2215.652832,2575.684326 2216.115479,2595.415283 2216.273682,2615.148193 
	C2216.458496,2638.192627 2216.377197,2661.239014 2214.750000,2686.384033 
	C2211.445312,2689.547852 2209.468262,2690.316650 2208.216797,2691.729004 
	C2203.297363,2697.280518 2197.777344,2696.734863 2192.107910,2693.488037 
	C2157.678467,2673.770996 2123.221680,2654.100098 2088.916748,2634.167969 
	C2060.344238,2617.566162 2032.006470,2600.560547 2003.451782,2583.927490 
	C2000.114014,2581.983398 1996.057861,2581.272217 1992.334717,2579.989258 
z" data-index="6"></path>
<path fill="#3180D9" opacity="1.000000" stroke="none" d="
M1849.964600,1190.434570 
	C1853.986206,1199.532715 1863.188477,1202.369141 1870.201172,1206.668579 
	C1890.559082,1219.149536 1911.669678,1230.398560 1932.416382,1242.250977 
	C1950.855103,1252.784912 1969.229980,1263.431763 1987.580444,1274.119141 
	C2001.335815,1282.130127 2014.980225,1290.331665 2028.723022,1298.364746 
	C2051.058594,1311.420776 2073.404541,1324.459839 2095.804688,1337.404419 
	C2108.449707,1344.711792 2121.227051,1351.790405 2133.918457,1359.017578 
	C2154.679688,1370.840088 2175.453613,1382.640015 2196.155762,1394.564941 
	C2209.950684,1402.511108 2223.604980,1410.700439 2237.365967,1418.705444 
	C2259.157471,1431.381836 2280.973877,1444.015869 2302.802490,1456.628418 
	C2323.485352,1468.579102 2344.198975,1480.476318 2364.896484,1492.401733 
	C2394.220703,1509.297485 2423.563965,1526.160645 2452.854980,1543.113647 
	C2464.908691,1550.089966 2476.803955,1557.340454 2488.848389,1564.333008 
	C2522.703857,1583.988159 2556.537598,1603.682129 2590.497559,1623.155518 
	C2621.012939,1640.653564 2651.793213,1657.690430 2682.255127,1675.279785 
	C2711.551270,1692.195801 2740.433105,1709.830566 2769.785889,1726.645874 
	C2796.285889,1741.827271 2823.176270,1756.327148 2851.205566,1771.704346 
	C2845.404541,1777.730835 2838.669189,1783.785645 2831.098877,1788.499634 
	C2817.049805,1797.247681 2802.513428,1805.212646 2787.333496,1813.993164 
	C2745.545410,1791.316772 2704.920898,1767.475098 2663.899658,1744.356934 
	C2622.815430,1721.203369 2581.811279,1697.908203 2540.000000,1674.238159 
	C2513.321533,1686.781494 2489.206299,1703.374634 2461.407959,1715.785889 
	C2457.622803,1712.925293 2456.112793,1710.486084 2453.923828,1709.217529 
	C2425.791748,1692.911621 2397.558105,1676.780762 2369.360352,1660.587646 
	C2357.853760,1653.979614 2346.350586,1647.364258 2334.882568,1640.689697 
	C2305.640869,1623.670288 2276.421387,1606.612427 2247.189209,1589.576172 
	C2224.838135,1576.549805 2202.522705,1563.461670 2180.115234,1550.533081 
	C2159.422363,1538.593872 2138.636475,1526.815674 2117.875977,1514.994263 
	C2105.185059,1507.767822 2092.412598,1500.682861 2079.767822,1493.376221 
	C2057.368408,1480.432739 2035.021118,1467.398682 2012.685669,1454.344604 
	C1998.943115,1446.312744 1985.333862,1438.051025 1971.539062,1430.110596 
	C1950.832520,1418.191528 1930.023926,1406.449341 1909.243530,1394.658569 
	C1887.884033,1382.539307 1866.437988,1370.571167 1845.151245,1358.325562 
	C1803.170410,1334.175537 1761.307739,1309.820190 1719.298828,1285.719360 
	C1713.973511,1282.664062 1708.791504,1279.901123 1707.133301,1273.417969 
	C1718.466553,1266.480713 1729.659668,1259.301392 1741.158813,1252.651001 
	C1776.909302,1231.975708 1812.775757,1211.501221 1849.964600,1190.434570 
z" data-index="7"></path>
<path fill="#4497E0" opacity="1.000000" stroke="none" d="
M2985.932373,1697.608643 
	C2984.266846,1693.107910 2982.170166,1689.482300 2977.594482,1686.890991 
	C2948.719727,1670.538940 2919.887695,1654.109497 2891.160156,1637.500122 
	C2871.635986,1626.212280 2852.333008,1614.542358 2832.877930,1603.133789 
	C2821.430420,1596.421021 2809.863281,1589.912476 2798.377197,1583.265137 
	C2764.493896,1563.655762 2730.690186,1543.908569 2696.729980,1524.433594 
	C2666.214844,1506.934448 2635.416992,1489.926758 2604.959473,1472.328735 
	C2575.666992,1455.403931 2546.770996,1437.793579 2517.481201,1420.864502 
	C2487.026123,1403.262085 2456.198975,1386.304565 2425.736572,1368.714966 
	C2396.440186,1351.798340 2367.514893,1334.239136 2338.215088,1317.328369 
	C2315.219727,1304.056152 2291.821289,1291.484497 2268.753174,1278.336060 
	C2249.155518,1267.165771 2229.794189,1255.581665 2210.291748,1244.244141 
	C2189.069824,1231.906982 2167.826416,1219.606079 2146.554199,1207.355713 
	C2117.797607,1190.794922 2088.997070,1174.311035 2060.230713,1157.767090 
	C2044.705322,1148.838379 2029.287720,1139.718994 2013.674561,1130.946899 
	C2004.964478,1126.053223 1996.234985,1121.313965 1988.755859,1112.515137 
	C2010.593018,1095.723267 2036.875854,1087.878418 2064.005615,1085.040039 
	C2091.711670,1082.141113 2119.795898,1081.531616 2147.546387,1087.447510 
	C2169.220215,1092.067871 2189.883301,1099.283936 2209.064941,1110.248169 
	C2268.033203,1143.954102 2326.872803,1177.886230 2385.681152,1211.870483 
	C2484.844727,1269.174927 2583.954346,1326.572510 2683.070801,1383.958252 
	C2771.238525,1435.005127 2859.386719,1486.086548 2947.539795,1537.158447 
	C2976.351562,1553.850708 3005.120117,1570.618164 3033.969482,1587.244995 
	C3055.463623,1599.633057 3075.192139,1614.210938 3092.169434,1634.149048 
	C3057.522217,1655.985596 3022.415283,1676.547729 2985.932373,1697.608643 
z" data-index="8"></path>
<path fill="#351C7A" opacity="1.000000" stroke="none" d="
M2091.416504,3331.973877 
	C2091.666016,3364.021973 2091.915527,3396.070068 2092.183105,3429.984131 
	C2075.951172,3434.045166 2060.463135,3429.979248 2045.047363,3425.846436 
	C2023.705933,3420.125244 2003.740234,3411.116699 1984.650146,3400.020020 
	C1897.151733,3349.157959 1809.645386,3298.309082 1722.070679,3247.578369 
	C1546.925415,3146.120117 1371.731812,3044.745605 1196.566162,2943.322266 
	C1183.312988,2935.648682 1170.010376,2928.051270 1156.927002,2920.095947 
	C1132.803223,2905.427734 1111.721558,2887.301270 1094.574341,2864.704834 
	C1072.676025,2835.848145 1060.958862,2803.015869 1056.269165,2767.438232 
	C1055.401489,2760.856201 1055.419189,2754.156982 1056.894287,2745.895020 
	C1065.934692,2747.729492 1073.313354,2750.817627 1080.239990,2754.709961 
	C1093.550171,2762.189453 1106.585815,2770.156250 1119.768677,2777.863770 
	C1142.699219,2791.270020 1165.637329,2804.663818 1188.605591,2818.005371 
	C1206.987305,2828.682373 1225.346069,2839.402344 1243.846069,2849.871582 
	C1266.978516,2862.962158 1290.346924,2875.637451 1313.425903,2888.820557 
	C1337.646362,2902.655273 1361.656006,2916.859863 1385.735718,2930.940674 
	C1398.343994,2938.313477 1410.856812,2945.849854 1423.496460,2953.168213 
	C1452.240479,2969.810547 1481.016357,2986.398193 1509.817383,3002.941650 
	C1530.555420,3014.853760 1551.399658,3026.581299 1572.114990,3038.532471 
	C1594.547119,3051.473877 1616.884644,3064.579346 1639.262939,3077.614502 
	C1652.461426,3085.302490 1665.636230,3093.031494 1678.862427,3100.671875 
	C1699.567505,3112.632812 1720.292603,3124.559326 1741.037109,3136.452148 
	C1754.295410,3144.052734 1767.644897,3151.495361 1780.880981,3159.134277 
	C1802.736938,3171.748047 1824.544312,3184.446289 1846.353149,3197.141602 
	C1860.126709,3205.159424 1873.821655,3213.313232 1887.630615,3221.269043 
	C1908.351929,3233.207764 1929.130127,3245.048340 1949.908081,3256.888184 
	C1962.610962,3264.126953 1975.447754,3271.134521 1988.068726,3278.512207 
	C2016.158081,3294.932129 2044.169922,3311.485352 2072.164551,3328.067139 
	C2078.187988,3331.634766 2084.655029,3332.372070 2091.416504,3331.973877 
z" data-index="9" style="opacity: 1;"></path>
<path fill="#2A258B" opacity="1.000000" stroke="none" d="
M2091.196777,3151.956299 
	C2091.909424,3188.291016 2093.856201,3224.638916 2089.912598,3260.922852 
	C2089.628662,3263.534668 2089.930176,3266.209961 2088.211914,3270.384521 
	C2082.151367,3270.204346 2077.581543,3268.955078 2073.567871,3266.710449 
	C2051.534424,3254.385986 2029.605103,3241.874023 2007.706909,3229.309814 
	C1997.344604,3223.364746 1987.182617,3217.071045 1976.840088,3211.090088 
	C1947.513672,3194.131348 1918.138550,3177.256592 1888.786865,3160.341553 
	C1868.070435,3148.402344 1847.321777,3136.518555 1826.660400,3124.485107 
	C1807.151001,3113.122803 1787.853516,3101.392578 1768.249878,3090.197266 
	C1745.170166,3077.017090 1721.711182,3064.499023 1698.685547,3051.227051 
	C1658.408813,3028.011719 1618.380859,3004.364990 1578.161743,2981.049072 
	C1558.046997,2969.388428 1537.642334,2958.227539 1517.543335,2946.540283 
	C1488.269531,2929.517822 1459.263550,2912.032959 1429.939087,2895.098877 
	C1399.447632,2877.490967 1368.604614,2860.491943 1338.116943,2842.877686 
	C1308.796143,2825.937744 1279.849609,2808.349365 1250.525146,2791.415527 
	C1220.033569,2773.807861 1189.158936,2756.863037 1158.687744,2739.220947 
	C1129.955444,2722.586182 1101.642700,2705.225098 1072.860840,2688.678955 
	C1067.924561,2685.841309 1061.562744,2685.482910 1055.859375,2683.979492 
	C1055.516479,2673.490967 1054.913818,2663.003174 1054.880859,2652.513672 
	C1054.792358,2624.230957 1054.946533,2595.947510 1056.883057,2565.972168 
	C1071.667480,2571.069824 1084.726196,2577.586426 1097.448730,2584.704102 
	C1128.171631,2601.892090 1158.808105,2619.237305 1189.347534,2636.749268 
	C1223.334473,2656.238281 1257.190552,2675.956055 1291.072021,2695.628662 
	C1303.125854,2702.627441 1315.038208,2709.870361 1327.101807,2716.852295 
	C1356.416260,2733.818359 1385.781372,2750.696777 1415.126709,2767.609131 
	C1435.839233,2779.545898 1456.570068,2791.450928 1477.261230,2803.424561 
	C1498.523071,2815.728760 1519.737061,2828.115479 1540.990234,2840.434814 
	C1554.779541,2848.427002 1568.623901,2856.324219 1582.403198,2864.333496 
	C1601.921997,2875.679199 1621.310669,2887.251709 1640.924683,2898.429443 
	C1664.011230,2911.587158 1687.419922,2924.182617 1710.433716,2937.464111 
	C1739.756714,2954.386963 1768.713013,2971.945068 1798.031616,2988.875732 
	C1828.516968,3006.480225 1859.356079,3023.472412 1889.837158,3041.083984 
	C1919.151978,3058.021729 1948.120361,3075.558105 1977.398560,3092.560059 
	C2009.560547,3111.236328 2042.019165,3129.405029 2074.058105,3148.288086 
	C2079.739014,3151.636475 2085.238770,3151.915283 2091.196777,3151.956299 
z" data-index="10"></path>
<path fill="#2875D6" opacity="1.000000" stroke="none" d="
M1705.798340,1273.895264 
	C1708.791504,1279.901123 1713.973511,1282.664062 1719.298828,1285.719360 
	C1761.307739,1309.820190 1803.170410,1334.175537 1845.151245,1358.325562 
	C1866.437988,1370.571167 1887.884033,1382.539307 1909.243530,1394.658569 
	C1930.023926,1406.449341 1950.832520,1418.191528 1971.539062,1430.110596 
	C1985.333862,1438.051025 1998.943115,1446.312744 2012.685669,1454.344604 
	C2035.021118,1467.398682 2057.368408,1480.432739 2079.767822,1493.376221 
	C2092.412598,1500.682861 2105.185059,1507.767822 2117.875977,1514.994263 
	C2138.636475,1526.815674 2159.422363,1538.593872 2180.115234,1550.533081 
	C2202.522705,1563.461670 2224.838135,1576.549805 2247.189209,1589.576172 
	C2276.421387,1606.612427 2305.640869,1623.670288 2334.882568,1640.689697 
	C2346.350586,1647.364258 2357.853760,1653.979614 2369.360352,1660.587646 
	C2397.558105,1676.780762 2425.791748,1692.911621 2453.923828,1709.217529 
	C2456.112793,1710.486084 2457.622803,1712.925293 2460.027832,1716.197754 
	C2451.023193,1723.485352 2441.581055,1729.640503 2431.830566,1735.261108 
	C2398.406982,1754.528076 2364.875244,1773.607178 2329.421387,1791.794189 
	C2318.212891,1780.923584 2305.655762,1775.995728 2294.344971,1769.326172 
	C2271.486328,1755.847046 2247.989502,1743.454956 2225.001953,1730.187988 
	C2195.712402,1713.283936 2166.772705,1695.774170 2137.486816,1678.863770 
	C2107.035400,1661.280518 2076.245117,1644.283691 2045.799072,1626.691528 
	C2016.518066,1609.772461 1987.601685,1592.222168 1958.315552,1575.312256 
	C1927.863892,1557.729492 1897.044678,1540.782715 1866.601562,1523.185425 
	C1837.322754,1506.261230 1808.441772,1488.648560 1779.161255,1471.727173 
	C1748.716309,1454.132935 1717.929810,1437.130615 1687.425171,1419.638184 
	C1653.476929,1400.171265 1619.720581,1380.369263 1585.766357,1360.912842 
	C1580.943726,1358.149414 1576.792480,1355.263062 1575.231689,1349.679810 
	C1592.802368,1339.147827 1610.278076,1328.453125 1627.967773,1318.125122 
	C1649.683960,1305.446533 1671.578857,1293.074097 1695.507324,1280.086914 
	C1698.576660,1279.165527 1699.294434,1278.475830 1699.771606,1277.535645 
	C1701.335571,1276.481323 1702.899536,1275.427002 1705.798340,1273.895264 
z" data-index="11"></path>
<path fill="#0C52CC" opacity="1.000000" stroke="none" d="
M3118.781738,2836.046875 
	C3107.245117,2825.105225 3094.372314,2817.401123 3080.832031,2810.209229 
	C3061.517578,2799.949951 3042.825928,2788.513428 3023.914551,2777.500488 
	C3010.741455,2769.829346 2997.722412,2761.891846 2984.498779,2754.310059 
	C2963.784668,2742.434326 2942.884033,2730.883301 2922.194336,2718.965820 
	C2898.641113,2705.398682 2875.214844,2691.611084 2851.764893,2677.865234 
	C2822.025879,2660.432861 2792.423828,2642.764160 2762.564209,2625.541748 
	C2739.581299,2612.285645 2716.218262,2599.689697 2693.161865,2586.558838 
	C2673.572266,2575.402832 2654.180908,2563.899414 2634.697998,2552.556396 
	C2621.520020,2544.884033 2608.332031,2537.228027 2595.154297,2529.555420 
	C2572.812012,2516.546875 2550.505615,2503.476562 2528.122314,2490.539062 
	C2515.486328,2483.235596 2502.692627,2476.205566 2490.030518,2468.946045 
	C2468.747803,2456.744141 2447.509521,2444.464844 2426.260742,2432.203369 
	C2413.051758,2424.580811 2399.973389,2416.720215 2386.593018,2409.411865 
	C2382.032715,2406.920898 2376.730225,2405.789062 2370.324707,2404.004883 
	C2368.609619,2400.688477 2368.098389,2397.403809 2368.097900,2394.118896 
	C2368.090088,2334.635010 2368.143311,2275.151367 2370.039062,2213.827637 
	C2379.684570,2213.318359 2387.474121,2214.648926 2395.263672,2215.979492 
	C2395.644531,2233.148193 2396.175537,2250.315186 2396.369385,2267.486084 
	C2396.637939,2291.288330 2396.609375,2315.093994 2396.805908,2338.897461 
	C2396.859619,2345.388672 2397.265625,2351.876953 2397.482422,2357.630371 
	C2403.678223,2361.685791 2407.385010,2357.675293 2411.114746,2355.541260 
	C2434.054443,2342.414307 2456.858887,2329.051514 2482.354980,2316.220215 
	C2490.653564,2325.102295 2497.999512,2331.103516 2507.189209,2335.911621 
	C2530.091553,2347.895264 2552.522705,2360.801758 2574.908936,2373.742676 
	C2604.164795,2390.655518 2633.087402,2408.144775 2662.352051,2425.041748 
	C2692.781494,2442.610840 2723.556641,2459.582275 2753.979004,2477.163086 
	C2783.237549,2494.071045 2812.122070,2511.627197 2841.385498,2528.526367 
	C2871.813477,2546.098145 2902.572754,2563.095703 2933.052002,2580.579834 
	C2966.972412,2600.037598 3000.767090,2619.716064 3034.562256,2639.391357 
	C3047.729492,2647.057129 3060.710205,2655.043213 3073.846436,2662.763916 
	C3090.417236,2672.503174 3107.088623,2682.071533 3123.656982,2691.815674 
	C3129.625488,2695.326172 3136.013916,2696.476074 3142.800293,2696.065186 
	C3145.243164,2734.739502 3143.933594,2773.085693 3131.392090,2810.206055 
	C3128.450684,2818.912354 3123.863037,2827.062256 3118.781738,2836.046875 
z" data-index="12"></path>
<path fill="#145CCF" opacity="1.000000" stroke="none" d="
M3143.192383,2694.222656 
	C3136.013916,2696.476074 3129.625488,2695.326172 3123.656982,2691.815674 
	C3107.088623,2682.071533 3090.417236,2672.503174 3073.846436,2662.763916 
	C3060.710205,2655.043213 3047.729492,2647.057129 3034.562256,2639.391357 
	C3000.767090,2619.716064 2966.972412,2600.037598 2933.052002,2580.579834 
	C2902.572754,2563.095703 2871.813477,2546.098145 2841.385498,2528.526367 
	C2812.122070,2511.627197 2783.237549,2494.071045 2753.979004,2477.163086 
	C2723.556641,2459.582275 2692.781494,2442.610840 2662.352051,2425.041748 
	C2633.087402,2408.144775 2604.164795,2390.655518 2574.908936,2373.742676 
	C2552.522705,2360.801758 2530.091553,2347.895264 2507.189209,2335.911621 
	C2497.999512,2331.103516 2490.653564,2325.102295 2483.695557,2315.962402 
	C2499.172852,2304.872314 2515.768311,2294.173584 2532.778076,2284.179932 
	C2567.382080,2263.849609 2602.209473,2243.899902 2638.514648,2224.894043 
	C2641.584229,2233.210449 2646.833984,2237.046875 2652.781006,2240.418457 
	C2671.808838,2251.205322 2690.818115,2262.026123 2709.750732,2272.979004 
	C2733.842773,2286.916504 2757.864746,2300.974365 2781.892334,2315.022949 
	C2794.472900,2322.378662 2806.950439,2329.912354 2819.561523,2337.214844 
	C2848.241943,2353.821289 2876.954102,2370.373779 2905.696777,2386.872559 
	C2926.393799,2398.752930 2947.246094,2410.364990 2967.871338,2422.366943 
	C2987.337646,2433.693848 3006.468018,2445.599854 3025.979248,2456.846680 
	C3056.994873,2474.724609 3088.499512,2491.778076 3119.120605,2510.299072 
	C3126.612305,2514.830322 3133.625977,2516.002441 3141.575439,2516.149170 
	C3142.270508,2531.947510 3143.469482,2547.742920 3143.563965,2563.544678 
	C3143.820557,2606.488281 3143.609619,2649.434814 3143.192383,2694.222656 
z" data-index="13"></path>
<path fill="#252A94" opacity="1.000000" stroke="none" d="
M2091.476318,3150.102051 
	C2085.238770,3151.915283 2079.739014,3151.636475 2074.058105,3148.288086 
	C2042.019165,3129.405029 2009.560547,3111.236328 1977.398560,3092.560059 
	C1948.120361,3075.558105 1919.151978,3058.021729 1889.837158,3041.083984 
	C1859.356079,3023.472412 1828.516968,3006.480225 1798.031616,2988.875732 
	C1768.713013,2971.945068 1739.756714,2954.386963 1710.433716,2937.464111 
	C1687.419922,2924.182617 1664.011230,2911.587158 1640.924683,2898.429443 
	C1621.310669,2887.251709 1601.921997,2875.679199 1582.403198,2864.333496 
	C1568.623901,2856.324219 1554.779541,2848.427002 1540.990234,2840.434814 
	C1519.737061,2828.115479 1498.523071,2815.728760 1477.261230,2803.424561 
	C1456.570068,2791.450928 1435.839233,2779.545898 1415.126709,2767.609131 
	C1385.781372,2750.696777 1356.416260,2733.818359 1327.101807,2716.852295 
	C1315.038208,2709.870361 1303.125854,2702.627441 1291.072021,2695.628662 
	C1257.190552,2675.956055 1223.334473,2656.238281 1189.347534,2636.749268 
	C1158.808105,2619.237305 1128.171631,2601.892090 1097.448730,2584.704102 
	C1084.726196,2577.586426 1071.667480,2571.069824 1057.313232,2564.139160 
	C1055.525269,2546.975830 1055.047485,2529.954834 1054.887451,2512.930908 
	C1054.745728,2497.844238 1054.957153,2482.753906 1056.950195,2465.851074 
	C1069.822144,2463.902100 1076.907715,2471.948486 1085.468872,2476.735107 
	C1116.194092,2493.913330 1146.831421,2511.251953 1177.368530,2528.762451 
	C1211.353271,2548.249512 1245.207397,2567.964844 1279.086548,2587.635498 
	C1291.139526,2594.633789 1303.048950,2601.879639 1315.111816,2608.860840 
	C1344.424316,2625.825439 1373.787964,2642.701416 1403.131592,2659.611816 
	C1423.842529,2671.547607 1444.571777,2683.452393 1465.261353,2695.425293 
	C1486.521606,2707.728271 1507.733765,2720.114746 1528.985596,2732.432617 
	C1542.773804,2740.424561 1556.618042,2748.319336 1570.396118,2756.328613 
	C1589.913330,2767.673828 1609.299927,2779.246094 1628.912476,2790.423340 
	C1651.997681,2803.579590 1675.402100,2816.178223 1698.418091,2829.452148 
	C1728.320679,2846.697998 1757.962891,2864.394775 1787.743164,2881.853027 
	C1811.225586,2895.618896 1834.684204,2909.427979 1858.271362,2923.012939 
	C1878.990967,2934.946289 1899.888428,2946.570312 1920.680176,2958.378906 
	C1932.806641,2965.266357 1944.901001,2972.210938 1956.972046,2979.195312 
	C1978.807739,2991.829834 2000.626587,3004.493652 2022.430298,3017.183350 
	C2036.200195,3025.197510 2049.847656,3033.425537 2063.708496,3041.278320 
	C2072.308594,3046.150146 2080.462402,3052.421387 2091.177734,3051.948975 
	C2091.370605,3084.048584 2091.563232,3116.148438 2091.476318,3150.102051 
z" data-index="14"></path>
<path fill="#1E309E" opacity="1.000000" stroke="none" d="
M2091.461914,3050.096191 
	C2080.462402,3052.421387 2072.308594,3046.150146 2063.708496,3041.278320 
	C2049.847656,3033.425537 2036.200195,3025.197510 2022.430298,3017.183350 
	C2000.626587,3004.493652 1978.807739,2991.829834 1956.972046,2979.195312 
	C1944.901001,2972.210938 1932.806641,2965.266357 1920.680176,2958.378906 
	C1899.888428,2946.570312 1878.990967,2934.946289 1858.271362,2923.012939 
	C1834.684204,2909.427979 1811.225586,2895.618896 1787.743164,2881.853027 
	C1757.962891,2864.394775 1728.320679,2846.697998 1698.418091,2829.452148 
	C1675.402100,2816.178223 1651.997681,2803.579590 1628.912476,2790.423340 
	C1609.299927,2779.246094 1589.913330,2767.673828 1570.396118,2756.328613 
	C1556.618042,2748.319336 1542.773804,2740.424561 1528.985596,2732.432617 
	C1507.733765,2720.114746 1486.521606,2707.728271 1465.261353,2695.425293 
	C1444.571777,2683.452393 1423.842529,2671.547607 1403.131592,2659.611816 
	C1373.787964,2642.701416 1344.424316,2625.825439 1315.111816,2608.860840 
	C1303.048950,2601.879639 1291.139526,2594.633789 1279.086548,2587.635498 
	C1245.207397,2567.964844 1211.353271,2548.249512 1177.368530,2528.762451 
	C1146.831421,2511.251953 1116.194092,2493.913330 1085.468872,2476.735107 
	C1076.907715,2471.948486 1069.822144,2463.902100 1057.379639,2464.017822 
	C1055.528320,2445.664307 1055.066772,2427.331055 1054.881226,2408.994873 
	C1054.741699,2395.220703 1054.956421,2381.442871 1056.960449,2365.854004 
	C1071.729858,2366.060303 1082.309326,2373.113770 1093.213257,2379.399902 
	C1115.075195,2392.003418 1136.891968,2404.685059 1158.727417,2417.334473 
	C1171.945068,2424.991455 1185.177002,2432.624023 1198.376953,2440.311279 
	C1217.889526,2451.675049 1237.286133,2463.240967 1256.902832,2474.421143 
	C1279.993042,2487.581055 1303.403442,2500.182373 1326.424927,2513.459229 
	C1356.334839,2530.708740 1385.984741,2548.408936 1415.772095,2565.871338 
	C1439.260010,2579.641113 1462.763062,2593.385254 1486.304199,2607.063477 
	C1504.107422,2617.407471 1521.915283,2627.746582 1539.840942,2637.875732 
	C1562.980347,2650.950928 1586.393188,2663.547607 1609.407593,2676.836670 
	C1638.732056,2693.769287 1667.723633,2711.277344 1696.953003,2728.375977 
	C1737.078979,2751.848633 1777.298462,2775.161133 1817.464355,2798.565674 
	C1823.307373,2801.970215 1829.315674,2804.672119 1836.314453,2804.017822 
	C1836.483398,2811.911377 1839.541382,2817.178955 1847.023560,2821.402588 
	C1903.253418,2853.144531 1959.175781,2885.431152 2015.209595,2917.520752 
	C2036.005859,2929.430664 2056.881104,2941.203613 2077.631104,2953.193359 
	C2082.202637,2955.834717 2086.394775,2959.131836 2091.746094,2962.802490 
	C2091.746094,2991.073486 2091.746094,3019.658447 2091.461914,3050.096191 
z" data-index="15"></path>
<path fill="#145CCF" opacity="1.000000" stroke="none" d="
M2136.113037,1904.269287 
	C2119.121582,1914.515625 2102.569092,1925.603271 2085.013672,1934.769409 
	C2067.825439,1943.744141 2051.116211,1953.332275 2034.831665,1963.823608 
	C2024.807739,1970.281372 2014.076782,1975.641602 2001.643799,1980.566406 
	C1993.657349,1976.018921 1987.950562,1971.837402 1981.656738,1968.925415 
	C1974.085083,1965.422363 1971.353882,1959.899780 1972.020996,1952.062866 
	C1993.856323,1938.215454 2015.693604,1924.371094 2037.525635,1910.518555 
	C2043.078613,1906.995117 2048.614990,1903.445557 2053.489502,1900.335327 
	C2053.489502,1898.348022 2053.657715,1897.731934 2053.447998,1897.299438 
	C2053.169922,1896.726929 2052.686035,1896.138672 2052.137451,1895.829346 
	C1919.923828,1821.313354 1787.696777,1746.821167 1654.385132,1671.717163 
	C1598.678833,1702.677490 1542.941284,1733.655151 1485.568604,1763.523438 
	C1483.022827,1760.678223 1482.567261,1758.201416 1481.132202,1757.320557 
	C1465.322998,1747.618042 1449.445557,1738.019653 1433.421875,1728.675537 
	C1408.824707,1714.331421 1384.105591,1700.196533 1359.425659,1685.994751 
	C1331.291626,1669.805786 1303.114136,1653.692261 1275.011230,1637.449707 
	C1252.652954,1624.527222 1230.543335,1611.164917 1207.998047,1598.580566 
	C1196.539917,1592.184937 1185.627319,1583.932739 1171.550171,1583.779297 
	C1178.720703,1579.155762 1185.722168,1574.241333 1193.089355,1569.955811 
	C1242.294922,1541.332031 1291.578857,1512.842529 1343.145996,1483.903809 
	C1346.778687,1483.020386 1347.666870,1482.114990 1348.119629,1480.782104 
	C1348.119629,1480.782104 1348.470703,1480.213623 1349.493164,1480.114746 
	C1351.428223,1479.526245 1351.934937,1478.766235 1352.035645,1477.735596 
	C1355.071289,1475.939453 1358.106812,1474.143311 1363.342529,1472.005859 
	C1366.838501,1471.266724 1367.649414,1470.409790 1367.975586,1469.093994 
	C1367.975586,1469.093994 1369.651855,1468.012695 1371.554932,1467.706909 
	C1374.741089,1466.904663 1375.557861,1465.990967 1375.908081,1464.660034 
	C1376.505005,1464.316406 1377.101929,1463.972656 1379.472412,1464.680908 
	C1404.299072,1478.871948 1427.339844,1492.032471 1450.408081,1505.144775 
	C1480.983521,1522.523926 1511.648315,1539.747437 1542.150391,1557.254272 
	C1575.519653,1576.406616 1608.764038,1595.776489 1642.027588,1615.112427 
	C1654.638428,1622.443237 1667.094604,1630.040771 1679.719116,1637.347412 
	C1708.431763,1653.965454 1737.188599,1670.507202 1765.959229,1687.024536 
	C1786.674561,1698.917358 1807.483643,1710.646851 1828.173096,1722.584351 
	C1850.577393,1735.511353 1872.836670,1748.690308 1895.260864,1761.582886 
	C1916.547607,1773.821289 1938.064331,1785.661255 1959.301392,1797.984009 
	C1988.556396,1814.958740 2017.578735,1832.334351 2046.821533,1849.330200 
	C2074.354736,1865.332153 2102.088135,1880.989258 2129.595459,1897.034790 
	C2132.265869,1898.592651 2133.963623,1901.817993 2136.113037,1904.269287 
z" data-index="16"></path>
<path fill="#206CD3" opacity="1.000000" stroke="none" d="
M1573.853760,1350.166016 
	C1576.792480,1355.263062 1580.943726,1358.149414 1585.766357,1360.912842 
	C1619.720581,1380.369263 1653.476929,1400.171265 1687.425171,1419.638184 
	C1717.929810,1437.130615 1748.716309,1454.132935 1779.161255,1471.727173 
	C1808.441772,1488.648560 1837.322754,1506.261230 1866.601562,1523.185425 
	C1897.044678,1540.782715 1927.863892,1557.729492 1958.315552,1575.312256 
	C1987.601685,1592.222168 2016.518066,1609.772461 2045.799072,1626.691528 
	C2076.245117,1644.283691 2107.035400,1661.280518 2137.486816,1678.863770 
	C2166.772705,1695.774170 2195.712402,1713.283936 2225.001953,1730.187988 
	C2247.989502,1743.454956 2271.486328,1755.847046 2294.344971,1769.326172 
	C2305.655762,1775.995728 2318.212891,1780.923584 2328.043457,1792.210449 
	C2312.868164,1803.041138 2297.198242,1812.647461 2281.322754,1821.900757 
	C2263.705322,1832.169678 2245.900146,1842.116211 2225.468750,1851.847900 
	C2212.433838,1845.467285 2202.120605,1839.418701 2191.777588,1833.421509 
	C2168.218018,1819.761108 2144.637451,1806.136597 2121.076904,1792.477661 
	C2099.816650,1780.151978 2078.586426,1767.775024 2057.316162,1755.467041 
	C2036.616943,1743.489746 2015.867920,1731.598633 1995.171143,1719.617310 
	C1980.801514,1711.298950 1966.525391,1702.818359 1952.132202,1694.541504 
	C1931.396973,1682.617798 1910.600464,1670.800415 1889.816650,1658.961670 
	C1877.111572,1651.724731 1864.332886,1644.615601 1851.672485,1637.301880 
	C1829.243652,1624.345337 1806.906738,1611.229736 1784.477661,1598.273438 
	C1772.392456,1591.292358 1760.140625,1584.599243 1748.061646,1577.607544 
	C1725.645508,1564.632202 1703.304321,1551.527710 1680.925293,1538.488159 
	C1667.725586,1530.796875 1654.529541,1523.098755 1641.302734,1515.453979 
	C1620.597656,1503.486816 1599.851074,1491.591064 1579.154175,1479.609741 
	C1564.784790,1471.291382 1550.480957,1462.859619 1536.126709,1454.515015 
	C1517.747559,1443.830444 1499.459351,1432.981323 1480.889404,1422.638428 
	C1475.152710,1419.443237 1468.624268,1417.669678 1462.458374,1415.245117 
	C1465.072754,1413.246826 1467.502808,1410.928711 1470.329590,1409.299072 
	C1504.344360,1389.691284 1538.417725,1370.185059 1573.853760,1350.166016 
z" data-index="17"></path>
<path fill="#0B41BC" opacity="1.000000" stroke="none" d="
M2368.541016,2697.775391 
	C2383.950928,2694.736084 2395.466064,2703.530273 2407.483398,2710.216309 
	C2430.629883,2723.093994 2453.309326,2736.810059 2476.223145,2750.107910 
	C2493.986328,2760.416748 2511.843994,2770.562744 2529.601074,2780.882324 
	C2553.081299,2794.528076 2576.501709,2808.277100 2599.952881,2821.973389 
	C2639.419922,2845.023438 2678.803955,2868.218506 2718.393555,2891.056396 
	C2741.355469,2904.302002 2764.720215,2916.847412 2787.775635,2929.933838 
	C2806.788574,2940.725830 2825.615967,2951.844727 2844.520752,2962.826904 
	C2858.840088,2971.145264 2873.066895,2979.627441 2887.511475,2987.721680 
	C2892.587402,2990.565918 2895.989502,2993.986572 2895.918457,3001.486328 
	C2893.518799,3003.801270 2891.106201,3004.698242 2886.721436,3006.522949 
	C2883.038330,3008.631592 2881.327637,3009.812256 2879.616699,3010.992920 
	C2879.616699,3010.992920 2879.791016,3011.476318 2878.723877,3011.898926 
	C2876.566895,3012.976318 2875.900635,3013.927490 2875.657471,3015.175537 
	C2875.657471,3015.175537 2875.469727,3015.661621 2874.579590,3015.569824 
	C2872.769287,3015.702637 2872.179688,3016.270752 2871.920654,3017.181641 
	C2828.869141,3042.154297 2785.817627,3067.126953 2741.197266,3090.468262 
	C2738.255371,3086.622803 2737.412598,3083.532471 2735.427002,3082.331299 
	C2718.377686,3072.018799 2701.141113,3062.014404 2683.921631,3051.984619 
	C2669.573486,3043.626953 2655.161133,3035.379150 2640.798584,3027.045410 
	C2621.837402,3016.043457 2602.985107,3004.849854 2583.924805,2994.022217 
	C2560.811035,2980.892090 2537.379395,2968.317383 2514.353027,2955.037598 
	C2474.652100,2932.141602 2435.170898,2908.864014 2395.571533,2885.791260 
	C2378.351807,2875.758301 2361.097412,2865.784180 2343.797363,2855.890625 
	C2337.072266,2852.044434 2332.129639,2847.075195 2331.489502,2838.902100 
	C2343.290283,2831.733398 2355.091064,2824.564453 2367.807617,2816.839355 
	C2367.931885,2777.728027 2368.055664,2738.677002 2368.541016,2697.775391 
z" data-index="18"></path>
<path fill="#0549C8" opacity="1.000000" stroke="none" d="
M1390.074707,2086.467285 
	C1379.437500,2088.810791 1370.602905,2085.634277 1361.671631,2080.076172 
	C1340.815674,2067.097656 1319.228149,2055.294189 1297.930054,2043.026611 
	C1278.929565,2032.082520 1259.880737,2021.221802 1240.927490,2010.196533 
	C1227.727905,2002.518188 1214.693115,1994.556763 1201.515137,1986.840454 
	C1178.015625,1973.079956 1154.512939,1959.323364 1130.918335,1945.726929 
	C1110.769531,1934.116089 1090.552124,1922.619751 1070.206421,1911.359253 
	C1066.847046,1909.500122 1062.672852,1909.113403 1057.366211,1908.030029 
	C1055.515747,1902.750732 1054.888794,1897.488403 1054.878296,1892.224731 
	C1054.797363,1851.835205 1054.863647,1811.445190 1054.827393,1771.055420 
	C1054.807129,1748.417847 1057.196533,1726.146973 1065.621338,1703.456543 
	C1088.094482,1711.525269 1109.612793,1720.385376 1130.797607,1729.981934 
	C1210.809082,1766.226685 1290.716797,1802.700562 1370.647705,1839.123047 
	C1377.264160,1842.137939 1383.763428,1845.410278 1390.654663,1848.725464 
	C1390.987305,1854.637451 1391.533813,1859.864746 1391.536865,1865.092163 
	C1391.573608,1929.017456 1391.576050,1992.942749 1391.458252,2056.867920 
	C1391.441040,2066.178955 1390.750854,2075.488770 1390.074707,2086.467285 
z" data-index="19"></path>
<path fill="#1B65D1" opacity="1.000000" stroke="none" d="
M1461.128906,1415.510010 
	C1468.624268,1417.669678 1475.152710,1419.443237 1480.889404,1422.638428 
	C1499.459351,1432.981323 1517.747559,1443.830444 1536.126709,1454.515015 
	C1550.480957,1462.859619 1564.784790,1471.291382 1579.154175,1479.609741 
	C1599.851074,1491.591064 1620.597656,1503.486816 1641.302734,1515.453979 
	C1654.529541,1523.098755 1667.725586,1530.796875 1680.925293,1538.488159 
	C1703.304321,1551.527710 1725.645508,1564.632202 1748.061646,1577.607544 
	C1760.140625,1584.599243 1772.392456,1591.292358 1784.477661,1598.273438 
	C1806.906738,1611.229736 1829.243652,1624.345337 1851.672485,1637.301880 
	C1864.332886,1644.615601 1877.111572,1651.724731 1889.816650,1658.961670 
	C1910.600464,1670.800415 1931.396973,1682.617798 1952.132202,1694.541504 
	C1966.525391,1702.818359 1980.801514,1711.298950 1995.171143,1719.617310 
	C2015.867920,1731.598633 2036.616943,1743.489746 2057.316162,1755.467041 
	C2078.586426,1767.775024 2099.816650,1780.151978 2121.076904,1792.477661 
	C2144.637451,1806.136597 2168.218018,1819.761108 2191.777588,1833.421509 
	C2202.120605,1839.418701 2212.433838,1845.467285 2224.125244,1852.120239 
	C2209.746338,1862.066650 2194.009033,1871.396484 2178.255615,1880.698853 
	C2171.667725,1884.589111 2165.453613,1889.803955 2158.328857,1891.908325 
	C2150.470703,1894.229004 2145.198730,1899.538574 2137.507812,1903.995117 
	C2133.963623,1901.817993 2132.265869,1898.592651 2129.595459,1897.034790 
	C2102.088135,1880.989258 2074.354736,1865.332153 2046.821533,1849.330200 
	C2017.578735,1832.334351 1988.556396,1814.958740 1959.301392,1797.984009 
	C1938.064331,1785.661255 1916.547607,1773.821289 1895.260864,1761.582886 
	C1872.836670,1748.690308 1850.577393,1735.511353 1828.173096,1722.584351 
	C1807.483643,1710.646851 1786.674561,1698.917358 1765.959229,1687.024536 
	C1737.188599,1670.507202 1708.431763,1653.965454 1679.719116,1637.347412 
	C1667.094604,1630.040771 1654.638428,1622.443237 1642.027588,1615.112427 
	C1608.764038,1595.776489 1575.519653,1576.406616 1542.150391,1557.254272 
	C1511.648315,1539.747437 1480.983521,1522.523926 1450.408081,1505.144775 
	C1427.339844,1492.032471 1404.299072,1478.871948 1380.496094,1464.540283 
	C1385.169556,1459.682373 1390.406250,1455.696167 1396.050049,1452.408936 
	C1417.227905,1440.073853 1438.538574,1427.967163 1461.128906,1415.510010 
z" data-index="20"></path>
<path fill="#1438AD" opacity="1.000000" stroke="none" d="
M1836.295410,2620.030273 
	C1836.456299,2650.790283 1836.617310,2681.550537 1835.082764,2714.032227 
	C1814.580933,2705.920166 1795.544434,2696.498291 1777.025635,2686.149658 
	C1753.286743,2672.883301 1729.954346,2658.888184 1706.466553,2645.173584 
	C1693.866333,2637.816895 1681.352417,2630.311035 1668.720093,2623.010010 
	C1639.420410,2606.074951 1610.069458,2589.229248 1580.745483,2572.336182 
	C1560.048584,2560.413086 1539.353760,2548.486816 1518.672974,2536.535889 
	C1496.845947,2523.922119 1475.018677,2511.309082 1453.226562,2498.635254 
	C1439.465942,2490.632324 1425.826050,2482.420654 1412.032104,2474.476074 
	C1391.329834,2462.552979 1370.546509,2450.770508 1349.785034,2438.950928 
	C1337.093872,2431.725342 1324.330811,2424.625488 1311.686035,2417.319824 
	C1289.285767,2404.377441 1266.947998,2391.326904 1244.589966,2378.311279 
	C1231.404175,2370.635254 1218.235840,2362.928955 1205.048950,2355.254639 
	C1185.550903,2343.907471 1166.048828,2332.566895 1146.538208,2321.240967 
	C1124.736938,2308.584961 1103.047363,2295.728516 1081.051758,2283.419434 
	C1073.038696,2278.935303 1064.285278,2275.774414 1055.869629,2272.009766 
	C1055.529663,2249.751465 1055.140381,2227.493652 1054.875122,2205.234619 
	C1054.773438,2196.713623 1054.955688,2188.189209 1056.886230,2177.973633 
	C1069.390259,2181.691162 1080.151489,2186.854980 1090.607788,2192.576172 
	C1102.828369,2199.262695 1114.750488,2206.492188 1126.859863,2213.384521 
	C1148.202759,2225.533203 1169.653564,2237.493164 1190.940674,2249.738037 
	C1214.517334,2263.299805 1237.939209,2277.130127 1261.471924,2290.768555 
	C1272.956055,2297.424561 1284.614868,2303.780762 1296.059814,2310.502197 
	C1315.503662,2321.921387 1334.712280,2333.745361 1354.252075,2344.995605 
	C1384.734863,2362.546143 1415.520142,2379.572266 1445.975464,2397.169922 
	C1475.265381,2414.093750 1504.182983,2431.662109 1533.477905,2448.577148 
	C1563.938599,2466.165527 1594.727783,2483.184082 1625.240234,2500.683838 
	C1659.197632,2520.158936 1693.033203,2539.847412 1726.863281,2559.543701 
	C1740.044556,2567.218262 1753.019897,2575.245361 1766.171631,2582.971436 
	C1782.760620,2592.717041 1799.296875,2602.567871 1816.141724,2611.854736 
	C1822.446167,2615.330078 1829.553955,2617.347900 1836.295410,2620.030273 
z" data-index="21"></path>
<path fill="#0F3DB5" opacity="1.000000" stroke="none" d="
M1836.542603,2618.165771 
	C1829.553955,2617.347900 1822.446167,2615.330078 1816.141724,2611.854736 
	C1799.296875,2602.567871 1782.760620,2592.717041 1766.171631,2582.971436 
	C1753.019897,2575.245361 1740.044556,2567.218262 1726.863281,2559.543701 
	C1693.033203,2539.847412 1659.197632,2520.158936 1625.240234,2500.683838 
	C1594.727783,2483.184082 1563.938599,2466.165527 1533.477905,2448.577148 
	C1504.182983,2431.662109 1475.265381,2414.093750 1445.975464,2397.169922 
	C1415.520142,2379.572266 1384.734863,2362.546143 1354.252075,2344.995605 
	C1334.712280,2333.745361 1315.503662,2321.921387 1296.059814,2310.502197 
	C1284.614868,2303.780762 1272.956055,2297.424561 1261.471924,2290.768555 
	C1237.939209,2277.130127 1214.517334,2263.299805 1190.940674,2249.738037 
	C1169.653564,2237.493164 1148.202759,2225.533203 1126.859863,2213.384521 
	C1114.750488,2206.492188 1102.828369,2199.262695 1090.607788,2192.576172 
	C1080.151489,2186.854980 1069.390259,2181.691162 1057.315674,2176.140381 
	C1055.583374,2145.221191 1055.299316,2114.442383 1055.442871,2081.830078 
	C1064.286011,2083.762939 1073.038574,2086.927002 1081.051880,2091.411621 
	C1103.046875,2103.721436 1124.735840,2116.577393 1146.536865,2129.233154 
	C1166.047119,2140.559082 1185.549194,2151.898682 1205.046997,2163.245850 
	C1218.233643,2170.920166 1231.401245,2178.627441 1244.587036,2186.303467 
	C1266.944824,2199.318359 1289.282959,2212.367676 1311.683105,2225.309570 
	C1324.327515,2232.614990 1337.089844,2239.716309 1349.780640,2246.941406 
	C1370.541748,2258.761475 1391.325317,2270.542725 1412.027222,2282.465576 
	C1425.821045,2290.409912 1439.427490,2298.679688 1453.228394,2306.611328 
	C1473.942383,2318.516602 1494.809692,2330.155518 1515.508179,2342.087402 
	C1538.494873,2355.338379 1561.379395,2368.767090 1584.282837,2382.162109 
	C1613.484741,2399.240479 1642.638428,2416.401611 1671.859985,2433.446289 
	C1683.324585,2440.133545 1694.959961,2446.528076 1706.443359,2453.184082 
	C1729.974487,2466.823486 1753.276245,2480.870117 1777.014771,2494.135986 
	C1795.532959,2504.484619 1814.568359,2513.907471 1834.839966,2523.883545 
	C1836.467407,2554.783936 1836.628540,2585.542480 1836.542603,2618.165771 
z" data-index="22"></path>
<path fill="#1B33A3" opacity="1.000000" stroke="none" d="
M1055.440918,2273.841797 
	C1064.285278,2275.774414 1073.038696,2278.935303 1081.051758,2283.419434 
	C1103.047363,2295.728516 1124.736938,2308.584961 1146.538208,2321.240967 
	C1166.048828,2332.566895 1185.550903,2343.907471 1205.048950,2355.254639 
	C1218.235840,2362.928955 1231.404175,2370.635254 1244.589966,2378.311279 
	C1266.947998,2391.326904 1289.285767,2404.377441 1311.686035,2417.319824 
	C1324.330811,2424.625488 1337.093872,2431.725342 1349.785034,2438.950928 
	C1370.546509,2450.770508 1391.329834,2462.552979 1412.032104,2474.476074 
	C1425.826050,2482.420654 1439.465942,2490.632324 1453.226562,2498.635254 
	C1475.018677,2511.309082 1496.845947,2523.922119 1518.672974,2536.535889 
	C1539.353760,2548.486816 1560.048584,2560.413086 1580.745483,2572.336182 
	C1610.069458,2589.229248 1639.420410,2606.074951 1668.720093,2623.010010 
	C1681.352417,2630.311035 1693.866333,2637.816895 1706.466553,2645.173584 
	C1729.954346,2658.888184 1753.286743,2672.883301 1777.025635,2686.149658 
	C1795.544434,2696.498291 1814.580933,2705.920166 1834.856567,2715.899414 
	C1836.462524,2744.124512 1836.599121,2772.204590 1836.525146,2802.151123 
	C1829.315674,2804.672119 1823.307373,2801.970215 1817.464355,2798.565674 
	C1777.298462,2775.161133 1737.078979,2751.848633 1696.953003,2728.375977 
	C1667.723633,2711.277344 1638.732056,2693.769287 1609.407593,2676.836670 
	C1586.393188,2663.547607 1562.980347,2650.950928 1539.840942,2637.875732 
	C1521.915283,2627.746582 1504.107422,2617.407471 1486.304199,2607.063477 
	C1462.763062,2593.385254 1439.260010,2579.641113 1415.772095,2565.871338 
	C1385.984741,2548.408936 1356.334839,2530.708740 1326.424927,2513.459229 
	C1303.403442,2500.182373 1279.993042,2487.581055 1256.902832,2474.421143 
	C1237.286133,2463.240967 1217.889526,2451.675049 1198.376953,2440.311279 
	C1185.177002,2432.624023 1171.945068,2424.991455 1158.727417,2417.334473 
	C1136.891968,2404.685059 1115.075195,2392.003418 1093.213257,2379.399902 
	C1082.309326,2373.113770 1071.729858,2366.060303 1057.389404,2364.020752 
	C1055.585083,2334.557861 1055.298706,2305.115967 1055.440918,2273.841797 
z" data-index="23" style="opacity: 1;"></path>
<path fill="#1438AD" opacity="1.000000" stroke="none" d="
M2330.134766,2839.327637 
	C2332.129639,2847.075195 2337.072266,2852.044434 2343.797363,2855.890625 
	C2361.097412,2865.784180 2378.351807,2875.758301 2395.571533,2885.791260 
	C2435.170898,2908.864014 2474.652100,2932.141602 2514.353027,2955.037598 
	C2537.379395,2968.317383 2560.811035,2980.892090 2583.924805,2994.022217 
	C2602.985107,3004.849854 2621.837402,3016.043457 2640.798584,3027.045410 
	C2655.161133,3035.379150 2669.573486,3043.626953 2683.921631,3051.984619 
	C2701.141113,3062.014404 2718.377686,3072.018799 2735.427002,3082.331299 
	C2737.412598,3083.532471 2738.255371,3086.622803 2739.776855,3090.214355 
	C2738.709717,3092.367920 2737.494141,3093.144531 2734.505371,3094.693359 
	C2731.034180,3096.617188 2729.335693,3097.769287 2727.637207,3098.921387 
	C2727.637207,3098.921143 2727.782471,3099.447266 2726.721680,3099.886475 
	C2724.584717,3100.965088 2723.920898,3101.897949 2723.669922,3103.124512 
	C2723.669922,3103.124512 2723.463379,3103.596436 2722.553711,3103.423340 
	C2721.644043,3103.250244 2720.428467,3103.812744 2720.428467,3103.812744 
	C2712.858154,3108.778076 2705.481934,3114.073975 2697.682373,3118.648682 
	C2669.938232,3134.921387 2642.050049,3150.948486 2612.067139,3167.551758 
	C2608.730713,3168.403809 2608.050537,3169.203857 2607.877197,3170.435059 
	C2607.301758,3170.859863 2606.726074,3171.284912 2604.114502,3171.785400 
	C2601.390137,3171.814941 2600.701660,3171.769531 2599.849121,3170.340820 
	C2597.710205,3161.927734 2592.199951,3158.522949 2586.281494,3155.153320 
	C2549.456299,3134.186768 2512.712158,3113.077148 2475.986572,3091.935547 
	C2441.560791,3072.118164 2407.174316,3052.232910 2372.805908,3032.315918 
	C2360.782715,3025.348145 2348.895508,3018.146240 2336.893799,3011.141357 
	C2317.452148,2999.793945 2297.985840,2988.488281 2278.495605,2977.224121 
	C2252.127441,2961.984863 2225.761475,2946.740479 2199.309814,2931.646973 
	C2194.101562,2928.675537 2192.021729,2924.226807 2191.418457,2918.669922 
	C2200.935547,2912.838867 2210.300537,2906.740479 2219.997070,2901.224854 
	C2256.199219,2880.630615 2292.510010,2860.227539 2330.134766,2839.327637 
z" data-index="24"></path>
<path fill="#312081" opacity="1.000000" stroke="none" d="
M1055.429688,2685.804443 
	C1061.562744,2685.482910 1067.924561,2685.841309 1072.860840,2688.678955 
	C1101.642700,2705.225098 1129.955444,2722.586182 1158.687744,2739.220947 
	C1189.158936,2756.863037 1220.033569,2773.807861 1250.525146,2791.415527 
	C1279.849609,2808.349365 1308.796143,2825.937744 1338.116943,2842.877686 
	C1368.604614,2860.491943 1399.447632,2877.490967 1429.939087,2895.098877 
	C1459.263550,2912.032959 1488.269531,2929.517822 1517.543335,2946.540283 
	C1537.642334,2958.227539 1558.046997,2969.388428 1578.161743,2981.049072 
	C1618.380859,3004.364990 1658.408813,3028.011719 1698.685547,3051.227051 
	C1721.711182,3064.499023 1745.170166,3077.017090 1768.249878,3090.197266 
	C1787.853516,3101.392578 1807.151001,3113.122803 1826.660400,3124.485107 
	C1847.321777,3136.518555 1868.070435,3148.402344 1888.786865,3160.341553 
	C1918.138550,3177.256592 1947.513672,3194.131348 1976.840088,3211.090088 
	C1987.182617,3217.071045 1997.344604,3223.364746 2007.706909,3229.309814 
	C2029.605103,3241.874023 2051.534424,3254.385986 2073.567871,3266.710449 
	C2077.581543,3268.955078 2082.151367,3270.204346 2088.079834,3272.112061 
	C2090.490967,3278.676270 2091.805176,3285.028320 2091.970947,3291.410156 
	C2092.290039,3303.696289 2091.958984,3315.999268 2091.656982,3330.134766 
	C2084.655029,3332.372070 2078.187988,3331.634766 2072.164551,3328.067139 
	C2044.169922,3311.485352 2016.158081,3294.932129 1988.068726,3278.512207 
	C1975.447754,3271.134521 1962.610962,3264.126953 1949.908081,3256.888184 
	C1929.130127,3245.048340 1908.351929,3233.207764 1887.630615,3221.269043 
	C1873.821655,3213.313232 1860.126709,3205.159424 1846.353149,3197.141602 
	C1824.544312,3184.446289 1802.736938,3171.748047 1780.880981,3159.134277 
	C1767.644897,3151.495361 1754.295410,3144.052734 1741.037109,3136.452148 
	C1720.292603,3124.559326 1699.567505,3112.632812 1678.862427,3100.671875 
	C1665.636230,3093.031494 1652.461426,3085.302490 1639.262939,3077.614502 
	C1616.884644,3064.579346 1594.547119,3051.473877 1572.114990,3038.532471 
	C1551.399658,3026.581299 1530.555420,3014.853760 1509.817383,3002.941650 
	C1481.016357,2986.398193 1452.240479,2969.810547 1423.496460,2953.168213 
	C1410.856812,2945.849854 1398.343994,2938.313477 1385.735718,2930.940674 
	C1361.656006,2916.859863 1337.646362,2902.655273 1313.425903,2888.820557 
	C1290.346924,2875.637451 1266.978516,2862.962158 1243.846069,2849.871582 
	C1225.346069,2839.402344 1206.987305,2828.682373 1188.605591,2818.005371 
	C1165.637329,2804.663818 1142.699219,2791.270020 1119.768677,2777.863770 
	C1106.585815,2770.156250 1093.550171,2762.189453 1080.239990,2754.709961 
	C1073.313354,2750.817627 1065.934692,2747.729492 1057.317871,2744.138428 
	C1055.583740,2725.208984 1055.291992,2706.419189 1055.429688,2685.804443 
z" data-index="25"></path>
<path fill="#1B33A3" opacity="1.000000" stroke="none" d="
M2190.061035,2919.125000 
	C2192.021729,2924.226807 2194.101562,2928.675537 2199.309814,2931.646973 
	C2225.761475,2946.740479 2252.127441,2961.984863 2278.495605,2977.224121 
	C2297.985840,2988.488281 2317.452148,2999.793945 2336.893799,3011.141357 
	C2348.895508,3018.146240 2360.782715,3025.348145 2372.805908,3032.315918 
	C2407.174316,3052.232910 2441.560791,3072.118164 2475.986572,3091.935547 
	C2512.712158,3113.077148 2549.456299,3134.186768 2586.281494,3155.153320 
	C2592.199951,3158.522949 2597.710205,3161.927734 2599.712402,3171.171143 
	C2599.739990,3173.384521 2599.767822,3175.061523 2599.767822,3175.061523 
	C2599.767822,3175.061523 2598.256104,3176.076660 2596.401123,3176.324707 
	C2593.204346,3177.076660 2592.372314,3178.027100 2592.049805,3179.424316 
	C2552.949463,3202.177979 2513.849121,3224.931885 2473.336914,3246.404297 
	C2471.960449,3240.829102 2470.438721,3237.591064 2466.504395,3235.286133 
	C2452.792969,3227.254639 2439.328613,3218.797119 2425.546387,3210.892578 
	C2395.082031,3193.420898 2364.372559,3176.375000 2333.963623,3158.808350 
	C2294.964844,3136.279541 2256.165283,3113.406494 2217.274902,3090.689697 
	C2193.252197,3076.657227 2169.337646,3062.433350 2145.122803,3048.740479 
	C2137.731201,3044.560791 2130.396240,3039.403564 2121.151123,3039.877197 
	C2120.832031,3015.336914 2120.476807,2990.796631 2120.247070,2966.255615 
	C2120.222900,2963.666016 2120.937256,2961.069580 2121.474609,2957.322998 
	C2143.670654,2944.862061 2166.187012,2932.221191 2190.061035,2919.125000 
z" data-index="26"></path>
<path fill="#1B65D1" opacity="1.000000" stroke="none" d="
M3142.119141,2514.335449 
	C3133.625977,2516.002441 3126.612305,2514.830322 3119.120605,2510.299072 
	C3088.499512,2491.778076 3056.994873,2474.724609 3025.979248,2456.846680 
	C3006.468018,2445.599854 2987.337646,2433.693848 2967.871338,2422.366943 
	C2947.246094,2410.364990 2926.393799,2398.752930 2905.696777,2386.872559 
	C2876.954102,2370.373779 2848.241943,2353.821289 2819.561523,2337.214844 
	C2806.950439,2329.912354 2794.472900,2322.378662 2781.892334,2315.022949 
	C2757.864746,2300.974365 2733.842773,2286.916504 2709.750732,2272.979004 
	C2690.818115,2262.026123 2671.808838,2251.205322 2652.781006,2240.418457 
	C2646.833984,2237.046875 2641.584229,2233.210449 2639.893066,2224.527100 
	C2649.158936,2217.087158 2658.470947,2210.869385 2668.100586,2205.190186 
	C2693.715820,2190.083008 2719.468018,2175.207520 2746.707275,2161.429688 
	C2750.780518,2170.822998 2756.996338,2175.817871 2763.946289,2179.869385 
	C2789.755127,2194.914062 2815.626709,2209.853027 2841.569824,2224.665039 
	C2872.134766,2242.115967 2902.868896,2259.271729 2933.400879,2276.779541 
	C2967.380127,2296.263672 3001.240723,2315.955322 3035.098145,2335.650879 
	C3047.714844,2342.990234 3060.132080,2350.671387 3072.719727,2358.061523 
	C3089.895508,2368.145264 3106.968750,2378.429443 3124.479004,2387.900879 
	C3129.480957,2390.606689 3135.844727,2390.794434 3141.584229,2392.136475 
	C3142.003906,2395.381348 3142.785645,2398.625977 3142.787842,2401.871094 
	C3142.814941,2438.754639 3142.722900,2475.638184 3142.119141,2514.335449 
z" data-index="27"></path>
<path fill="#2875D6" opacity="1.000000" stroke="none" d="
M2802.921387,2067.831299 
	C2802.405029,2064.601318 2801.439697,2061.371338 2801.439941,2058.141357 
	C2801.445312,2014.609009 2801.585205,1971.076538 2803.672119,1925.768799 
	C2815.573486,1923.716919 2823.284912,1929.427368 2831.208008,1933.995728 
	C2860.399902,1950.828125 2889.253662,1968.245972 2918.437256,1985.092651 
	C2948.782471,2002.609741 2979.489502,2019.500854 3009.807129,2037.064697 
	C3047.544922,2058.927246 3085.048828,2081.193359 3122.645752,2103.298828 
	C3128.504150,2106.743408 3134.759766,2108.554932 3141.590576,2108.182129 
	C3142.007812,2111.431152 3142.785889,2114.680176 3142.787354,2117.929443 
	C3142.808105,2161.429443 3142.720459,2204.929688 3140.671387,2250.233643 
	C3134.125977,2251.397461 3129.065186,2251.806152 3125.111572,2249.908447 
	C3115.550049,2245.319092 3106.456055,2239.739258 3097.261719,2234.406494 
	C3073.715332,2220.748779 3050.240967,2206.967773 3026.689453,2193.319092 
	C3015.195801,2186.657959 3003.514404,2180.318848 2992.060547,2173.591064 
	C2972.603027,2162.161865 2953.334473,2150.409180 2933.848389,2139.029297 
	C2900.593018,2119.608154 2867.390381,2100.086426 2833.813965,2081.232910 
	C2824.088379,2075.771973 2814.621826,2069.029297 2802.921387,2067.831299 
z" data-index="28"></path>
<path fill="#206CD3" opacity="1.000000" stroke="none" d="
M2802.297607,2069.616211 
	C2814.621826,2069.029297 2824.088379,2075.771973 2833.813965,2081.232910 
	C2867.390381,2100.086426 2900.593018,2119.608154 2933.848389,2139.029297 
	C2953.334473,2150.409180 2972.603027,2162.161865 2992.060547,2173.591064 
	C3003.514404,2180.318848 3015.195801,2186.657959 3026.689453,2193.319092 
	C3050.240967,2206.967773 3073.715332,2220.748779 3097.261719,2234.406494 
	C3106.456055,2239.739258 3115.550049,2245.319092 3125.111572,2249.908447 
	C3129.065186,2251.806152 3134.125977,2251.397461 3140.120605,2252.027832 
	C3141.979736,2255.270264 3142.765381,2258.522217 3142.767578,2261.774658 
	C3142.796387,2304.017822 3142.713867,2346.261230 3142.121826,2390.320312 
	C3135.844727,2390.794434 3129.480957,2390.606689 3124.479004,2387.900879 
	C3106.968750,2378.429443 3089.895508,2368.145264 3072.719727,2358.061523 
	C3060.132080,2350.671387 3047.714844,2342.990234 3035.098145,2335.650879 
	C3001.240723,2315.955322 2967.380127,2296.263672 2933.400879,2276.779541 
	C2902.868896,2259.271729 2872.134766,2242.115967 2841.569824,2224.665039 
	C2815.626709,2209.853027 2789.755127,2194.914062 2763.946289,2179.869385 
	C2756.996338,2175.817871 2750.780518,2170.822998 2748.098389,2161.209473 
	C2759.634277,2152.408936 2771.301270,2144.986816 2783.015625,2137.640625 
	C2788.598389,2134.139404 2794.271240,2130.782227 2800.766846,2126.834961 
	C2801.069580,2108.337158 2801.371582,2089.869141 2802.297607,2069.616211 
z" data-index="29"></path>
<path fill="#3180D9" opacity="1.000000" stroke="none" d="
M3142.142090,2106.366211 
	C3134.759766,2108.554932 3128.504150,2106.743408 3122.645752,2103.298828 
	C3085.048828,2081.193359 3047.544922,2058.927246 3009.807129,2037.064697 
	C2979.489502,2019.500854 2948.782471,2002.609741 2918.437256,1985.092651 
	C2889.253662,1968.245972 2860.399902,1950.828125 2831.208008,1933.995728 
	C2823.284912,1929.427368 2815.573486,1923.716919 2804.299805,1924.004639 
	C2802.479248,1903.510864 2801.851318,1883.007935 2801.625000,1862.500610 
	C2801.537842,1854.604980 2802.364502,1846.699219 2802.801514,1838.281860 
	C2821.540771,1825.296387 2841.493408,1814.902832 2862.424316,1804.953979 
	C2863.881348,1811.959106 2865.843262,1816.446167 2871.059326,1819.505981 
	C2884.782715,1827.556763 2898.293213,1835.973022 2912.053955,1843.958496 
	C2925.251221,1851.617188 2938.758057,1858.742676 2951.949463,1866.411133 
	C2981.178467,1883.402832 3010.279053,1900.615234 3039.462158,1917.686157 
	C3062.351807,1931.075562 3085.133057,1944.662476 3108.269287,1957.613281 
	C3119.162354,1963.710815 3129.579834,1971.405640 3142.820068,1972.088623 
	C3143.089844,2003.064087 3143.483398,2034.039062 3143.571045,2065.015137 
	C3143.608154,2078.192627 3143.005371,2091.371582 3142.142090,2106.366211 
z" data-index="30"></path>
<path fill="#252A94" opacity="1.000000" stroke="none" d="
M2120.786621,3041.732178 
	C2130.396240,3039.403564 2137.731201,3044.560791 2145.122803,3048.740479 
	C2169.337646,3062.433350 2193.252197,3076.657227 2217.274902,3090.689697 
	C2256.165283,3113.406494 2294.964844,3136.279541 2333.963623,3158.808350 
	C2364.372559,3176.375000 2395.082031,3193.420898 2425.546387,3210.892578 
	C2439.328613,3218.797119 2452.792969,3227.254639 2466.504395,3235.286133 
	C2470.438721,3237.591064 2471.960449,3240.829102 2471.937012,3246.589600 
	C2469.385254,3250.014404 2466.998047,3252.276367 2464.230713,3253.883789 
	C2430.727783,3273.341797 2397.168701,3292.702637 2360.957520,3311.671387 
	C2349.281494,3302.081299 2337.527100,3297.321777 2326.600830,3291.119141 
	C2292.681152,3271.864014 2259.018066,3252.155518 2225.302979,3232.541260 
	C2212.739746,3225.232178 2200.351562,3217.622803 2187.807129,3210.280518 
	C2170.119141,3199.927979 2152.461426,3189.513672 2134.551758,3179.556152 
	C2130.678223,3177.402588 2125.788818,3177.075195 2121.367676,3175.906738 
	C2121.033936,3164.073486 2120.456543,3152.241211 2120.413330,3140.406738 
	C2120.295410,3108.134033 2120.403320,3075.860352 2120.786621,3041.732178 
z" data-index="31"></path>
<path fill="#0C52CC" opacity="1.000000" stroke="none" d="
M1170.185059,1584.007568 
	C1185.627319,1583.932739 1196.539917,1592.184937 1207.998047,1598.580566 
	C1230.543335,1611.164917 1252.652954,1624.527222 1275.011230,1637.449707 
	C1303.114136,1653.692261 1331.291626,1669.805786 1359.425659,1685.994751 
	C1384.105591,1700.196533 1408.824707,1714.331421 1433.421875,1728.675537 
	C1449.445557,1738.019653 1465.322998,1747.618042 1481.132202,1757.320557 
	C1482.567261,1758.201416 1483.022827,1760.678223 1484.171143,1763.900391 
	C1473.661377,1771.887329 1463.030029,1778.589966 1452.139038,1784.840088 
	C1436.013184,1794.094482 1419.538208,1802.749390 1403.543091,1812.218872 
	C1395.908081,1816.738892 1389.295288,1816.935791 1381.158936,1813.135742 
	C1345.671509,1796.560425 1309.881348,1780.634155 1274.243530,1764.379395 
	C1209.610718,1734.899780 1145.008057,1705.353760 1078.961182,1675.062744 
	C1085.633667,1653.481445 1100.105469,1637.234009 1115.751343,1622.023560 
	C1131.458496,1606.753540 1149.497192,1594.539673 1170.185059,1584.007568 
z" data-index="32"></path>
<path fill="#3B8CDC" opacity="1.000000" stroke="none" d="
M3143.204590,1970.242676 
	C3129.579834,1971.405640 3119.162354,1963.710815 3108.269287,1957.613281 
	C3085.133057,1944.662476 3062.351807,1931.075562 3039.462158,1917.686157 
	C3010.279053,1900.615234 2981.178467,1883.402832 2951.949463,1866.411133 
	C2938.758057,1858.742676 2925.251221,1851.617188 2912.053955,1843.958496 
	C2898.293213,1835.973022 2884.782715,1827.556763 2871.059326,1819.505981 
	C2865.843262,1816.446167 2863.881348,1811.959106 2863.825195,1804.693115 
	C2866.321533,1801.155518 2868.724854,1798.844238 2871.524658,1797.214844 
	C2909.249512,1775.261230 2947.030029,1753.402344 2986.388672,1732.581299 
	C2989.413574,1740.865356 2994.559814,1744.813843 3000.497314,1748.266968 
	C3015.413330,1756.940918 3030.207764,1765.823364 3045.096191,1774.544800 
	C3067.427246,1787.625488 3089.737061,1800.743774 3112.178711,1813.632446 
	C3121.352539,1818.901123 3130.330078,1825.067261 3141.752441,1824.184448 
	C3142.154785,1827.439331 3142.888672,1830.692017 3142.909180,1833.949219 
	C3143.193359,1878.764648 3143.379150,1923.580811 3143.204590,1970.242676 
z" data-index="33"></path>
<path fill="#2A258B" opacity="1.000000" stroke="none" d="
M2121.001465,3177.759521 
	C2125.788818,3177.075195 2130.678223,3177.402588 2134.551758,3179.556152 
	C2152.461426,3189.513672 2170.119141,3199.927979 2187.807129,3210.280518 
	C2200.351562,3217.622803 2212.739746,3225.232178 2225.302979,3232.541260 
	C2259.018066,3252.155518 2292.681152,3271.864014 2326.600830,3291.119141 
	C2337.527100,3297.321777 2349.281494,3302.081299 2359.579102,3311.857910 
	C2359.802246,3313.541016 2358.737305,3314.620117 2355.854492,3316.020996 
	C2353.030029,3316.673096 2352.480957,3317.366699 2352.389648,3318.422852 
	C2351.685059,3318.907471 2350.980225,3319.391846 2348.253418,3320.267578 
	C2345.141113,3321.083740 2344.456055,3321.865234 2344.176514,3323.002441 
	C2344.176514,3323.002441 2343.473389,3323.768799 2342.543457,3323.750732 
	C2341.613525,3323.732666 2340.502930,3324.889404 2340.502930,3324.889404 
	C2314.308350,3340.381348 2288.113770,3355.873535 2259.147949,3371.457764 
	C2244.550537,3364.524902 2232.760986,3357.437744 2220.891113,3350.488281 
	C2197.668701,3336.891846 2174.484619,3323.226074 2151.111572,3309.893311 
	C2142.040527,3304.718994 2133.072021,3298.679199 2121.745605,3299.854736 
	C2121.352783,3291.995117 2120.648438,3284.136719 2120.622070,3276.275879 
	C2120.514160,3244.055176 2120.612793,3211.833496 2121.001465,3177.759521 
z" data-index="34"></path>
<path fill="#4497E0" opacity="1.000000" stroke="none" d="
M3142.278320,1822.361572 
	C3130.330078,1825.067261 3121.352539,1818.901123 3112.178711,1813.632446 
	C3089.737061,1800.743774 3067.427246,1787.625488 3045.096191,1774.544800 
	C3030.207764,1765.823364 3015.413330,1756.940918 3000.497314,1748.266968 
	C2994.559814,1744.813843 2989.413574,1740.865356 2987.752930,1732.152954 
	C3005.131592,1720.115601 3022.674561,1709.459351 3040.361572,1699.047119 
	C3062.686035,1685.904785 3085.127686,1672.961060 3109.053223,1659.548584 
	C3121.655518,1670.300293 3126.326416,1684.921509 3131.347168,1699.076172 
	C3139.339355,1721.608521 3143.189209,1745.040771 3143.109619,1769.025024 
	C3143.052734,1786.196411 3142.909180,1803.367432 3142.278320,1822.361572 
z" data-index="35"></path>
<path fill="#312081" opacity="1.000000" stroke="none" d="
M2121.288574,3301.697510 
	C2133.072021,3298.679199 2142.040527,3304.718994 2151.111572,3309.893311 
	C2174.484619,3323.226074 2197.668701,3336.891846 2220.891113,3350.488281 
	C2232.760986,3357.437744 2244.550537,3364.524902 2257.723145,3371.658203 
	C2257.364014,3373.115967 2255.658203,3374.465088 2252.072021,3376.117432 
	C2249.197510,3376.919434 2248.394775,3377.633301 2247.783691,3378.562256 
	C2247.783691,3378.562256 2246.872314,3379.768311 2246.227539,3379.949219 
	C2245.583008,3380.129883 2246.088623,3380.255371 2246.088623,3380.255371 
	C2233.035889,3387.933838 2220.097656,3395.815918 2206.906006,3403.248047 
	C2180.838623,3417.934326 2153.106445,3427.919678 2121.770996,3431.635254 
	C2120.296387,3396.737793 2120.380127,3362.118652 2120.508057,3327.499268 
	C2120.537598,3319.512695 2120.719727,3311.526611 2121.288574,3301.697510 
z" data-index="36"></path>
<path fill="#3180D9" opacity="1.000000" stroke="none" d="
M2880.562988,3010.359863 
	C2881.327637,3009.812256 2883.038330,3008.631592 2885.889648,3007.554443 
	C2885.189453,3008.347656 2883.349365,3009.037354 2880.562988,3010.359863 
z" data-index="37"></path>
<path fill="#3180D9" opacity="1.000000" stroke="none" d="
M2728.578613,3098.307617 
	C2729.335693,3097.769287 2731.034180,3096.617188 2733.856934,3095.586426 
	C2733.161133,3096.369629 2731.340332,3097.031982 2728.578613,3098.307617 
z" data-index="38"></path>
<path fill="#3180D9" opacity="1.000000" stroke="none" d="
M2720.684326,3104.256348 
	C2720.428467,3103.812744 2721.644043,3103.250244 2722.304932,3103.356445 
	C2722.965820,3103.462891 2722.365479,3104.727783 2722.365479,3104.727783 
	C2722.365479,3104.727783 2720.940186,3104.699951 2720.684326,3104.256348 
z" data-index="39"></path>
<path fill="#252A94" opacity="1.000000" stroke="none" d="
M2245.824463,3380.102051 
	C2246.088623,3380.255371 2245.583008,3380.129883 2245.476807,3380.035645 
	C2245.370605,3379.941162 2245.560303,3379.948730 2245.824463,3380.102051 
z" data-index="40"></path>
<path fill="#252A94" opacity="1.000000" stroke="none" d="
M2248.648193,3378.509766 
	C2248.394775,3377.633301 2249.197510,3376.919434 2250.965332,3376.172363 
	C2251.394531,3377.117676 2250.652344,3377.962158 2248.648193,3378.509766 
z" data-index="41"></path>
<path fill="#2875D6" opacity="1.000000" stroke="none" d="
M2340.947266,3325.146729 
	C2340.502930,3324.889404 2341.613525,3323.732666 2342.026367,3323.806641 
	C2342.575928,3324.723633 2342.226562,3325.231445 2340.947266,3325.146729 
z" data-index="42"></path>
<path fill="#2875D6" opacity="1.000000" stroke="none" d="
M2345.005371,3323.040527 
	C2344.456055,3321.865234 2345.141113,3321.083740 2347.028564,3320.649414 
	C2347.690674,3321.885498 2347.026855,3322.698242 2345.005371,3323.040527 
z" data-index="43"></path>
<path fill="#2875D6" opacity="1.000000" stroke="none" d="
M2353.103516,3318.489502 
	C2352.480957,3317.366699 2353.030029,3316.673096 2354.728027,3316.346924 
	C2355.359375,3317.431152 2354.825195,3318.166016 2353.103516,3318.489502 
z" data-index="44"></path>
<path fill="#3B8CDC" opacity="1.000000" stroke="none" d="
M2593.025391,3179.406006 
	C2592.372314,3178.027100 2593.204346,3177.076660 2595.525879,3176.575195 
	C2596.187988,3177.975586 2595.353271,3178.912109 2593.025391,3179.406006 
z" data-index="45"></path>
<path fill="#3B8CDC" opacity="1.000000" stroke="none" d="
M1347.140381,1480.798950 
	C1347.666870,1482.114990 1346.778687,1483.020386 1344.478271,1483.529785 
	C1343.978149,1482.248779 1344.864624,1481.333618 1347.140381,1480.798950 
z" data-index="46"></path>
<path fill="#3B8CDC" opacity="1.000000" stroke="none" d="
M2600.715088,3175.059570 
	C2599.767822,3175.061523 2599.739990,3173.384521 2599.876709,3172.554199 
	C2600.701660,3171.769531 2601.390137,3171.814941 2603.084961,3172.088379 
	C2603.757080,3173.651367 2602.947266,3174.565186 2600.715088,3175.059570 
z" data-index="47"></path>
<path fill="#3B8CDC" opacity="1.000000" stroke="none" d="
M2608.695801,3170.434570 
	C2608.050537,3169.203857 2608.730713,3168.403809 2610.740234,3168.028809 
	C2611.304688,3169.187500 2610.622070,3169.990967 2608.695801,3170.434570 
z" data-index="48"></path>
<path fill="#3180D9" opacity="1.000000" stroke="none" d="
M1698.955078,1277.541260 
	C1699.294434,1278.475830 1698.576660,1279.165527 1696.887939,1279.809570 
	C1696.391479,1278.849243 1697.051758,1278.026733 1698.955078,1277.541260 
z" data-index="49"></path>
<path fill="#3180D9" opacity="1.000000" stroke="none" d="
M2724.675049,3103.080078 
	C2723.920898,3101.897949 2724.584717,3100.965088 2726.487305,3100.026611 
	C2726.769287,3100.830078 2726.224609,3101.932617 2724.675049,3103.080078 
z" data-index="50"></path>
<path fill="#3B8CDC" opacity="1.000000" stroke="none" d="
M1351.365723,1477.923096 
	C1351.934937,1478.766235 1351.428223,1479.526245 1349.824341,1480.158936 
	C1349.278076,1479.303467 1349.798950,1478.572998 1351.365723,1477.923096 
z" data-index="51"></path>
<path fill="#3180D9" opacity="1.000000" stroke="none" d="
M2872.588867,3017.324707 
	C2872.179688,3016.270752 2872.769287,3015.702637 2874.328125,3015.501953 
	C2874.843506,3016.566406 2874.273682,3017.213623 2872.588867,3017.324707 
z" data-index="52"></path>
<path fill="#3180D9" opacity="1.000000" stroke="none" d="
M2876.671875,3015.115234 
	C2875.900635,3013.927490 2876.566895,3012.976318 2878.494873,3012.015625 
	C2878.783936,3012.824463 2878.235107,3013.939697 2876.671875,3015.115234 
z" data-index="53"></path>
<path fill="#4497E0" opacity="1.000000" stroke="none" d="
M1367.066284,1469.066895 
	C1367.649414,1470.409790 1366.838501,1471.266724 1364.624756,1471.641113 
	C1364.146118,1470.399658 1364.962891,1469.540283 1367.066284,1469.066895 
z" data-index="54"></path>
<path fill="#3180D9" opacity="1.000000" stroke="none" d="
M3108.970703,2855.765381 
	C3107.878418,2854.757568 3108.314209,2853.588623 3110.270264,2852.260254 
	C3111.436768,2853.294189 3111.006348,2854.462158 3108.970703,2855.765381 
z" data-index="55"></path>
<path fill="#4497E0" opacity="1.000000" stroke="none" d="
M1374.943604,1464.645020 
	C1375.557861,1465.990967 1374.741089,1466.904663 1372.511475,1467.424927 
	C1371.836548,1466.052368 1372.641235,1465.112793 1374.943604,1464.645020 
z" data-index="56"></path>
<path fill="#0549C8" opacity="1.000000" stroke="none" d="
M2215.613281,2554.100098 
	C2210.348389,2554.695801 2204.829346,2554.414551 2200.493652,2552.004883 
	C2185.723145,2543.795654 2171.293213,2534.960205 2156.901611,2526.091309 
	C2152.410156,2523.323242 2148.885498,2519.381104 2147.757324,2512.286133 
	C2156.475342,2505.122314 2165.424316,2499.450439 2174.310303,2493.818359 
	C2176.572510,2476.590576 2176.429199,2338.537109 2173.971436,2321.294922 
	C2169.538330,2322.929443 2165.198486,2324.168701 2161.176270,2326.076660 
	C2145.531006,2333.498291 2129.823975,2340.820068 2114.471680,2348.816650 
	C2106.556152,2352.939209 2099.920898,2352.904053 2092.069580,2348.319092 
	C2067.341309,2333.879150 2042.211304,2320.127441 2017.260620,2306.067139 
	C1913.975220,2247.864502 1810.692139,2189.657471 1707.421631,2131.428223 
	C1656.366333,2102.640625 1605.334351,2073.811523 1554.316895,2044.957031 
	C1551.467529,2043.345337 1548.847168,2041.328613 1545.002441,2038.750977 
	C1545.002441,2033.766479 1544.875122,2028.530396 1545.023193,2023.302246 
	C1545.984741,1989.350586 1546.930664,1955.398071 1548.098389,1921.453369 
	C1548.252686,1916.966187 1549.635742,1912.521240 1553.416504,1908.100098 
	C1563.448730,1913.039795 1570.237915,1918.407593 1577.632446,1922.742920 
	C1598.235718,1934.821655 1619.176636,1946.323486 1639.820312,1958.334839 
	C1659.303101,1969.670654 1678.496826,1981.502563 1697.961548,1992.870117 
	C1731.181152,2012.270386 1764.192749,2032.064697 1797.944946,2050.497314 
	C1812.913452,2058.671875 1826.793091,2069.771240 1844.529907,2072.216797 
	C1842.176758,2076.095459 1837.954590,2079.891357 1837.778198,2083.866699 
	C1836.750854,2107.025391 1836.754639,2130.224365 1837.666260,2152.322266 
	C1852.305176,2163.468994 1973.910278,2232.505615 1989.269531,2238.651123 
	C1989.906250,2238.459961 1990.679321,2238.427734 1991.140259,2238.031982 
	C1991.581787,2237.652832 1991.832153,2236.917969 1991.933960,2236.300781 
	C1992.255981,2234.349609 1992.673584,2232.382568 1992.692993,2230.418213 
	C1992.877563,2211.810791 1992.987183,2193.202881 1995.247559,2173.254395 
	C2004.620605,2175.210205 2012.191895,2177.939697 2019.051758,2181.901123 
	C2048.361328,2198.826172 2077.440186,2216.150391 2106.643555,2233.260010 
	C2130.123779,2247.016846 2153.435059,2261.086670 2177.273193,2274.196533 
	C2188.725098,2280.494629 2199.621094,2289.223633 2214.041016,2287.994629 
	C2214.444824,2292.593750 2215.187012,2297.191406 2215.202637,2301.791992 
	C2215.487793,2385.277100 2215.685303,2468.762451 2215.613281,2554.100098 
z" data-index="57"></path>
<path fill="#0C52CC" opacity="1.000000" stroke="none" d="
M1845.903320,2071.978027 
	C1826.793091,2069.771240 1812.913452,2058.671875 1797.944946,2050.497314 
	C1764.192749,2032.064697 1731.181152,2012.270386 1697.961548,1992.870117 
	C1678.496826,1981.502563 1659.303101,1969.670654 1639.820312,1958.334839 
	C1619.176636,1946.323486 1598.235718,1934.821655 1577.632446,1922.742920 
	C1570.237915,1918.407593 1563.448730,1913.039795 1554.920898,1907.527344 
	C1562.185425,1900.994629 1570.623779,1894.586670 1579.694946,1889.255859 
	C1603.720459,1875.136841 1628.019775,1861.483643 1653.295410,1847.024048 
	C1675.313110,1857.532837 1696.056519,1870.600586 1717.423828,1882.472900 
	C1738.343506,1894.096313 1759.147705,1905.927490 1779.999878,1917.672241 
	C1801.431396,1929.743286 1822.848755,1941.839844 1844.292603,1953.888916 
	C1865.108276,1965.585083 1885.949951,1977.234985 1907.313354,1989.203857 
	C1929.118164,1978.309326 1948.403564,1964.068604 1970.661621,1952.360107 
	C1971.353882,1959.899780 1974.085083,1965.422363 1981.656738,1968.925415 
	C1987.950562,1971.837402 1993.657349,1976.018921 2000.275879,1981.072021 
	C1978.789917,1995.649414 1956.710938,2008.893188 1934.496216,2021.905273 
	C1915.682739,2032.925415 1896.869751,2043.965576 1877.747559,2054.432373 
	C1867.493164,2060.045410 1857.134644,2065.439941 1845.903320,2071.978027 
z" data-index="58" style="opacity: 1;"></path>
<path fill="#1B65D1" opacity="1.000000" stroke="none" d="
M2641.161377,2044.526367 
	C2632.824219,2049.817139 2624.646240,2055.380615 2616.122070,2060.349854 
	C2584.083740,2079.027100 2551.932617,2097.510498 2517.116455,2115.732910 
	C2509.077881,2112.653809 2503.613525,2110.137695 2498.436768,2107.126465 
	C2458.820557,2084.083984 2419.300293,2060.875732 2379.665283,2037.865356 
	C2360.128906,2026.523438 2340.498291,2015.337036 2320.736816,2004.392944 
	C2312.451904,1999.804565 2307.044434,1993.940796 2307.952881,1983.874268 
	C2310.514160,1981.811401 2312.857178,1979.371582 2315.669434,1977.742554 
	C2351.941650,1956.731812 2388.280273,1935.836792 2426.227295,1916.024414 
	C2428.665039,1923.049805 2432.660156,1926.040649 2437.553955,1928.808350 
	C2451.961670,1936.957275 2466.104492,1945.573242 2480.419189,1953.888306 
	C2499.323975,1964.869873 2518.302246,1975.724976 2537.233398,1986.661133 
	C2559.026123,1999.250000 2580.732178,2011.989746 2602.610840,2024.426392 
	C2615.209229,2031.587769 2627.541992,2039.304932 2641.161377,2044.526367 
z" data-index="59"></path>
<path fill="#206CD3" opacity="1.000000" stroke="none" d="
M2642.647217,2044.182129 
	C2627.541992,2039.304932 2615.209229,2031.587769 2602.610840,2024.426392 
	C2580.732178,2011.989746 2559.026123,1999.250000 2537.233398,1986.661133 
	C2518.302246,1975.724976 2499.323975,1964.869873 2480.419189,1953.888306 
	C2466.104492,1945.573242 2451.961670,1936.957275 2437.553955,1928.808350 
	C2432.660156,1926.040649 2428.665039,1923.049805 2427.603516,1915.567871 
	C2444.353516,1903.622070 2461.231201,1893.040161 2478.381836,1882.921021 
	C2498.402100,1871.108276 2518.661133,1859.699951 2539.537109,1847.702026 
	C2542.994629,1849.242798 2546.715576,1850.526001 2550.066162,1852.452393 
	C2580.072998,1869.703125 2609.911377,1887.249512 2640.045898,1904.272583 
	C2647.791504,1908.648193 2651.719727,1913.652832 2651.582764,1923.102783 
	C2651.071045,1958.388428 2651.295898,1993.685547 2651.374023,2028.978027 
	C2651.387939,2035.260620 2650.992920,2041.044556 2642.647217,2044.182129 
z" data-index="60"></path>
<path fill="#0C52CC" opacity="1.000000" stroke="none" d="
M2214.452637,2286.161377 
	C2199.621094,2289.223633 2188.725098,2280.494629 2177.273193,2274.196533 
	C2153.435059,2261.086670 2130.123779,2247.016846 2106.643555,2233.260010 
	C2077.440186,2216.150391 2048.361328,2198.826172 2019.051758,2181.901123 
	C2012.191895,2177.939697 2004.620605,2175.210205 1995.792236,2171.682373 
	C1994.927246,2164.392090 2000.632080,2161.755859 2005.728760,2158.742676 
	C2022.880859,2148.602783 2040.083130,2138.546631 2057.316895,2128.546143 
	C2087.808838,2110.852295 2118.338135,2093.222900 2150.453613,2076.721680 
	C2152.870117,2083.783691 2157.705811,2085.918701 2161.778809,2089.214111 
	C2168.195312,2094.405762 2177.525391,2096.365479 2180.595947,2105.422119 
	C2171.465332,2111.812744 2162.334717,2118.203125 2151.996338,2125.438721 
	C2171.025635,2141.253174 2193.002930,2150.758301 2212.549805,2165.971436 
	C2216.393311,2204.942139 2214.617676,2244.664795 2214.452637,2286.161377 
z" data-index="61"></path>
<path fill="#145CCF" opacity="1.000000" stroke="none" d="
M2181.949219,2104.994141 
	C2177.525391,2096.365479 2168.195312,2094.405762 2161.778809,2089.214111 
	C2157.705811,2085.918701 2152.870117,2083.783691 2151.851562,2076.401855 
	C2167.402344,2065.311279 2183.023193,2055.467773 2198.938721,2046.125610 
	C2234.272217,2025.385254 2269.753662,2004.896240 2306.563721,1984.089478 
	C2307.044434,1993.940796 2312.451904,1999.804565 2320.736816,2004.392944 
	C2340.498291,2015.337036 2360.128906,2026.523438 2379.665283,2037.865356 
	C2419.300293,2060.875732 2458.820557,2084.083984 2498.436768,2107.126465 
	C2503.613525,2110.137695 2509.077881,2112.653809 2515.765869,2116.006348 
	C2511.699463,2120.259521 2506.452637,2124.206543 2500.823975,2127.500977 
	C2469.553223,2145.803955 2438.177734,2163.927734 2406.875244,2182.177002 
	C2403.494629,2184.147949 2400.353027,2186.528564 2395.858643,2189.555664 
	C2395.858643,2196.914551 2395.858643,2204.753174 2395.561035,2214.285889 
	C2387.474121,2214.648926 2379.684570,2213.318359 2370.392822,2211.981934 
	C2368.602783,2192.003174 2368.185059,2172.031006 2368.060547,2152.057373 
	C2367.915527,2128.748779 2368.026855,2105.438477 2368.026855,2082.864258 
	C2356.612305,2071.627197 2313.717773,2042.948608 2297.299316,2035.516602 
	C2259.587402,2058.359375 2221.444824,2081.462891 2181.949219,2104.994141 
z" data-index="62"></path>
<path fill="#0F3DB5" opacity="1.000000" stroke="none" d="
M1992.027466,2581.843994 
	C1996.057861,2581.272217 2000.114014,2581.983398 2003.451782,2583.927490 
	C2032.006470,2600.560547 2060.344238,2617.566162 2088.916748,2634.167969 
	C2123.221680,2654.100098 2157.678467,2673.770996 2192.107910,2693.488037 
	C2197.777344,2696.734863 2203.297363,2697.280518 2208.216797,2691.729004 
	C2209.468262,2690.316650 2211.445312,2689.547852 2214.486816,2688.243652 
	C2216.926025,2700.587891 2217.249268,2713.156738 2215.554688,2726.691162 
	C2178.202637,2747.937744 2141.424072,2770.416748 2102.836914,2790.293213 
	C2064.988525,2768.741699 2028.833252,2746.389404 1994.225464,2724.663818 
	C1992.927856,2722.509033 1992.541748,2721.974365 1992.270142,2721.386719 
	C1991.992310,2720.785645 1991.638794,2720.132568 1991.638794,2719.502197 
	C1991.645386,2674.234375 1991.684204,2628.966553 1992.027466,2581.843994 
z" data-index="63"></path>
</svg>